<?xml version="1.0" encoding="utf-8"?>
<!-- Generator: Adobe Illustrator 16.0.0, SVG Export Plug-In . SVG Version: 6.00 Build 0)  -->
<!DOCTYPE svg PUBLIC "-//W3C//DTD SVG 1.1//EN" "http://www.w3.org/Graphics/SVG/1.1/DTD/svg11.dtd">
<svg version="1.1" xmlns="http://www.w3.org/2000/svg" xmlns:xlink="http://www.w3.org/1999/xlink" x="0px" y="0px" width="120px"
	 height="120px" viewBox="0 0 120 120" enable-background="new 0 0 120 120" xml:space="preserve">
<g id="Layer_1">
	<circle cx="7.5" cy="52.5" r="2.5"/>
	<circle cx="7.5" cy="32.5" r="2.5"/>
	<circle cx="27.5" cy="12.5" r="2.5"/>
	<circle cx="37.5" cy="7.5" r="2.5"/>
	<circle cx="37.5" cy="52.5" r="2.5"/>
	<circle cx="57.5" cy="2.5" r="2.5"/>
	<circle cx="57.5" cy="52.5" r="2.5"/>
	<circle cx="57.5" cy="27.5" r="2.5"/>
	<circle cx="67.5" cy="52.5" r="2.5"/>
	<circle cx="87.5" cy="52.5" r="2.5"/>
	<circle cx="77.5" cy="7.5" r="2.5"/>
	<circle cx="97.5" cy="17.5" r="2.5"/>
	<circle cx="105" cy="52.5" r="2.5"/>
	<circle cx="112.5" cy="32.5" r="2.5"/>
	<circle cx="7.5" cy="42.5" r="2.5"/>
	<circle cx="27.5" cy="40" r="2.5"/>
	<line fill="none" stroke="#000000" stroke-width="5" stroke-miterlimit="10" x1="27.5" y1="12.5" x2="7.5" y2="32.5"/>
	<line fill="none" stroke="#000000" stroke-width="5" stroke-miterlimit="10" x1="57.5" y1="2.5" x2="37.5" y2="7.5"/>
	<line fill="none" stroke="#000000" stroke-width="5" stroke-miterlimit="10" x1="57" y1="27.5" x2="35" y2="27.5"/>
	<line fill="none" stroke="#000000" stroke-width="5" stroke-miterlimit="10" x1="57" y1="52.5" x2="37" y2="52.5"/>
	<line fill="none" stroke="#000000" stroke-width="5" stroke-miterlimit="10" x1="77.5" y1="7.5" x2="67.5" y2="52.5"/>
	<line fill="none" stroke="#000000" stroke-width="5" stroke-miterlimit="10" x1="97.5" y1="17.5" x2="112.5" y2="32.5"/>
	<rect x="5" y="32.5" width="5" height="20"/>
	<rect x="35" y="7.5" width="5" height="45"/>
	<rect x="102.5" y="25" width="5" height="27.5"/>
	<line fill="none" stroke="#000000" stroke-width="5" stroke-miterlimit="10" x1="77.5" y1="7.5" x2="87.5" y2="52.5"/>
	<circle cx="7.5" cy="62.5" r="2.5"/>
	<circle cx="7.5" cy="87.5" r="2.5"/>
	<circle cx="27.5" cy="107.5" r="2.5"/>
	<circle cx="27.5" cy="62.5" r="2.5"/>
	<circle cx="37.5" cy="62.5" r="2.5"/>
	<circle cx="37.5" cy="112.5" r="2.5"/>
	<circle cx="57.5" cy="72.5" r="2.5"/>
	<circle cx="67.5" cy="117.5" r="2.5"/>
	<circle cx="87.5" cy="112.5" r="2.5"/>
	<circle cx="67.5" cy="62.5" r="2.5"/>
	<circle cx="87.5" cy="62.5" r="2.5"/>
	<circle cx="87.5" cy="82.5" r="2.5"/>
	<circle cx="97.5" cy="62.5" r="2.5"/>
	<circle cx="97.5" cy="107.5" r="2.5"/>
	<circle cx="112.5" cy="82.5" r="2.5"/>
	<line fill="none" stroke="#000000" stroke-width="5" stroke-miterlimit="10" x1="7.5" y1="87.5" x2="27.5" y2="107.5"/>
	<line fill="none" stroke="#000000" stroke-width="5" stroke-miterlimit="10" x1="37.5" y1="62.5" x2="57.5" y2="72.5"/>
	<line fill="none" stroke="#000000" stroke-width="5" stroke-miterlimit="10" x1="37.5" y1="82.5" x2="57.5" y2="72.5"/>
	<circle cx="57.5" cy="117.5" r="2.5"/>
	<line fill="none" stroke="#000000" stroke-width="5" stroke-miterlimit="10" x1="37.5" y1="82.5" x2="57.5" y2="117.5"/>
	<line fill="none" stroke="#000000" stroke-width="5" stroke-miterlimit="10" x1="67.5" y1="117.5" x2="87.5" y2="112.5"/>
	<line fill="none" stroke="#000000" stroke-width="5" stroke-miterlimit="10" x1="97.5" y1="107.5" x2="112.5" y2="82.5"/>
	<line fill="none" stroke="#000000" stroke-width="5" stroke-miterlimit="10" x1="97.5" y1="62.5" x2="112.5" y2="82.5"/>
	<rect x="5" y="63" width="5" height="25"/>
	<rect x="25" y="63" width="5" height="45"/>
	<rect x="95" y="63" width="5" height="45"/>
	<rect x="35" y="63" width="5" height="50"/>
	<rect x="65" y="63" width="5" height="55"/>
	<rect x="67" y="60" width="20" height="5"/>
	<rect x="65" y="80" width="22" height="5"/>
	<rect x="5" y="37.5" width="22.5" height="5"/>
</g>
<g id="Layer_2">
</g>
</svg>
