<?xml version="1.0" encoding="utf-8"?>
<!-- Generator: Adobe Illustrator 16.0.0, SVG Export Plug-In . SVG Version: 6.00 Build 0)  -->
<!DOCTYPE svg PUBLIC "-//W3C//DTD SVG 1.1//EN" "http://www.w3.org/Graphics/SVG/1.1/DTD/svg11.dtd">
<svg version="1.1" id="Layer_1" xmlns="http://www.w3.org/2000/svg" xmlns:xlink="http://www.w3.org/1999/xlink" x="0px" y="0px"
	 width="12px" height="12px" viewBox="0 0 12 12" enable-background="new 0 0 12 12" xml:space="preserve">
<g>
	<g>
		<path d="M0.623,2.702c2.704,2.45,4.502,5.697,7.209,8.14c0.478,0.431,1.187-0.274,0.707-0.707c-2.708-2.443-4.505-5.69-7.209-8.14
			C0.854,1.563,0.144,2.269,0.623,2.702L0.623,2.702z"/>
	</g>
</g>
<g>
	<g>
		<path d="M1.679,11.26c3.297-2.799,5.792-6.87,9.896-8.592c0.585-0.246,0.329-1.213-0.266-0.964
			c-4.313,1.81-6.874,5.909-10.337,8.849C0.48,10.971,1.191,11.675,1.679,11.26L1.679,11.26z"/>
	</g>
</g>
<g>
	<g>
		<path d="M7.334,1.667C4.993,1.902,1.406,1.529-0.453,3.319C-2.458,5.251-2.21,8.835-0.58,10.91
			c1.844,2.347,5.603,2.511,7.695,0.543c2.306-2.169,0.969-6.41-0.349-8.705C6.622,3,6.479,3.25,6.334,3.501
			c2.83,0.362,5.575,1.167,8.092,2.521c2.091,1.125-1.949,2.154-2.902,2.336c-3.291,0.63-8.529,0.62-9.074-3.56
			C2.081,1.967,4.543-5.279,8.148-1.479c2.632,2.775,1.193,6.374-1.732,7.965C5.828,6.801,5.202,6.983,4.538,7.032
			c-0.273-0.427-0.547-0.853-0.82-1.28C4.095,5.455,4.512,5.23,4.969,5.079c0.816-0.318,1.955-0.555,2.78-0.146
			c0.04-0.305,0.08-0.609,0.12-0.914C6.087,4.507,4.33,4.716,2.754,3.569c-0.522-0.38-1.021,0.488-0.505,0.863
			c1.79,1.302,3.846,1.109,5.885,0.55c0.397-0.108,0.518-0.717,0.12-0.914C6.732,3.316,3.646,3.852,2.696,5.395
			c-1.243,2.02,1.507,2.803,3.013,2.446c3.17-0.752,5.022-3.453,4.708-6.597c-0.238-2.378-2.227-5.188-4.854-4.8
			C1.244-2.92,0.067,5.789,3.071,8.251c2.716,2.227,12.035,2.327,13.246-1.784c0.067-0.226-0.045-0.438-0.229-0.564
			c-2.883-1.978-6.313-2.961-9.752-3.401c-0.393-0.05-0.602,0.457-0.432,0.752c1.084,1.889,1.715,4.085,1.192,6.248
			c-0.949,3.918-6.479,2.355-7.649-0.45c-1.02-2.442-0.006-5.077,2.483-5.801c1.719-0.5,3.635-0.405,5.406-0.583
			C7.97,2.604,7.976,1.603,7.334,1.667L7.334,1.667z"/>
	</g>
</g>
</svg>
