<?xml version="1.0" encoding="utf-8"?>
<!-- Generator: Adobe Illustrator 16.0.0, SVG Export Plug-In . SVG Version: 6.00 Build 0)  -->
<!DOCTYPE svg PUBLIC "-//W3C//DTD SVG 1.1//EN" "http://www.w3.org/Graphics/SVG/1.1/DTD/svg11.dtd">
<svg version="1.1" xmlns="http://www.w3.org/2000/svg" xmlns:xlink="http://www.w3.org/1999/xlink" x="0px" y="0px" width="120px"
	 height="120px" viewBox="0 0 120 120" enable-background="new 0 0 120 120" xml:space="preserve">
<g id="Layer_1">
	<line fill="none" x1="0" y1="0" x2="0" y2="120"/>
	<line fill="none" x1="120" y1="0" x2="120" y2="120"/>
	<g>
		<path fill="#46802B" d="M5,54.009h2.871v6.412c0,1.968,1.592,3.56,3.561,3.56c1.971,0,3.557-1.592,3.557-3.56v-6.412h2.874v6.412
			c0,3.56-2.897,6.431-6.431,6.431c-1.738,0-3.347-0.666-4.56-1.876C5.665,63.766,5,62.154,5,60.421V54.009L5,54.009z"/>
		<path fill="#46802B" d="M31.285,66.615h-2.849v-6.408c0-1.971-1.637-3.562-3.636-3.562c-1.965,0-3.527,1.591-3.527,3.562v6.408
			h-2.853v-6.408c0-3.562,2.897-6.433,6.431-6.433c1.713,0,3.324,0.665,4.559,1.875c1.213,1.211,1.875,2.847,1.875,4.558V66.615
			L31.285,66.615z"/>
		<path fill="#46802B" d="M44.799,60.182c0,0.427-0.047,0.854-0.115,1.257l-0.053,0.19h-9.539c0.596,1.281,1.854,2.088,3.279,2.088
			h3.579v2.897h-3.579c-3.54,0-6.434-2.897-6.434-6.433c0-3.538,2.871-6.409,6.434-6.409C41.905,53.774,44.799,56.622,44.799,60.182
			z M41.641,58.734c-0.566-1.28-1.92-2.088-3.32-2.088c-1.426,0-2.661,0.808-3.229,2.112L41.641,58.734z"/>
		<path fill="#46802B" d="M51.66,66.615c-1.71,0-3.324-0.663-4.531-1.876c-1.234-1.233-1.9-2.846-1.9-4.556
			c0-1.709,0.688-3.346,1.9-4.557c1.207-1.209,2.821-1.851,4.531-1.851c3.559,0,6.432,2.848,6.432,6.408v6.433h-2.848v-6.433
			c0-1.969-1.611-3.537-3.584-3.537c-1.968,0-3.56,1.568-3.56,3.537c0,2.018,1.661,3.536,3.56,3.536h2.203v2.897H51.66L51.66,66.615
			z"/>
		<path fill="#46802B" d="M65.027,53.774v2.871c-1.948,0.024-3.534,1.591-3.534,3.537v6.433H58.6v-6.433
			C58.621,56.622,61.493,53.774,65.027,53.774z"/>
		<path fill="#46802B" d="M71.59,56.859v9.755h-2.896v-9.755h-3.104v-2.85h3.104v-3.985h2.896v3.985h3.111v2.85H71.59z"/>
		<path fill="#46802B" d="M88.301,66.615h-2.868v-6.433c0-1.969-1.614-3.537-3.585-3.537c-1.824,0-3.564,1.352-3.564,3.537v6.433
			h-2.867V50h2.893v4.819c1.023-0.665,2.236-1.045,3.539-1.045c1.732,0,3.344,0.641,4.557,1.851
			c1.212,1.211,1.896,2.848,1.896,4.557V66.615z"/>
		<path fill="#46802B" d="M101.66,60.182c0,0.427-0.045,0.854-0.115,1.257l-0.051,0.19h-9.541c0.596,1.281,1.854,2.088,3.276,2.088
			h3.585v2.897h-3.585c-3.534,0-6.431-2.897-6.431-6.433c0-3.538,2.868-6.409,6.431-6.409
			C98.764,53.774,101.66,56.622,101.66,60.182z M98.506,58.734c-0.57-1.28-1.924-2.088-3.324-2.088
			c-1.426,0-2.658,0.808-3.229,2.112L98.506,58.734z"/>
		<path fill="#46802B" d="M115,60.633v5.982h-6.432c-1.707,0-3.32-0.663-4.53-1.876c-1.235-1.233-1.896-2.846-1.896-4.556
			c0-1.709,0.66-3.346,1.896-4.557c1.21-1.209,2.823-1.851,4.53-1.851c1.334,0,2.543,0.38,3.562,1.045V50H115v10.182V60.633z
			 M108.568,63.718h3.562v-3.917c-0.188-1.804-1.709-3.156-3.562-3.156c-1.967,0-3.557,1.568-3.557,3.537
			c0,0.948,0.354,1.852,1.045,2.515C106.722,63.387,107.62,63.718,108.568,63.718z"/>
	</g>
</g>
<g id="Layer_2">
</g>
</svg>
