<?xml version="1.0" encoding="utf-8"?>
<!-- Generator: Adobe Illustrator 16.0.0, SVG Export Plug-In . SVG Version: 6.00 Build 0)  -->
<!DOCTYPE svg PUBLIC "-//W3C//DTD SVG 1.1//EN" "http://www.w3.org/Graphics/SVG/1.1/DTD/svg11.dtd">
<svg version="1.1" xmlns="http://www.w3.org/2000/svg" xmlns:xlink="http://www.w3.org/1999/xlink" x="0px" y="0px" width="120px"
	 height="120px" viewBox="0 0 120 120" enable-background="new 0 0 120 120" xml:space="preserve">
<g id="Layer_1">
	<path fill="#EF4135" d="M58.468,39.652l-1.151,44.136c0,0.894,0.443,1.771,1.263,2.278c1.257,0.768,2.903,0.374,3.673-0.879
		c0.265-0.438,0.385-0.92,0.385-1.396l-1.136-44.139c0.974-0.537,1.64-1.561,1.639-2.75c0.003-1.743-1.409-3.16-3.155-3.154
		c-1.744-0.004-3.156,1.409-3.158,3.154C56.827,38.09,57.496,39.117,58.468,39.652"/>
	<line fill="none" x1="0" y1="0" x2="0" y2="120"/>
	<line fill="none" x1="120" y1="0" x2="120" y2="120"/>
</g>
<g id="Layer_2">
</g>
</svg>
