<?xml version="1.0" encoding="utf-8"?>
<!-- Generator: Adobe Illustrator 16.0.0, SVG Export Plug-In . SVG Version: 6.00 Build 0)  -->
<!DOCTYPE svg PUBLIC "-//W3C//DTD SVG 1.1//EN" "http://www.w3.org/Graphics/SVG/1.1/DTD/svg11.dtd">
<svg version="1.1" id="Layer_1" xmlns="http://www.w3.org/2000/svg" xmlns:xlink="http://www.w3.org/1999/xlink" x="0px" y="0px"
	 width="12px" height="12px" viewBox="0 0 12 12" enable-background="new 0 0 12 12" xml:space="preserve">
<g>
	<g>
		<path d="M3.465,2.082c2.364,0.084,5.029-0.356,7.073,1.094c-0.034-0.262-0.067-0.523-0.101-0.785
			c-2.569,2.19-6.411,1.464-9.201,3.294c-0.278,0.182-0.371,0.706,0,0.863C3.66,7.574,6.413,7.983,8.562,9.571
			C8.528,9.31,8.494,9.048,8.46,8.786c-1.702,1.475-4.501,1.475-6.623,1.714c-0.633,0.071-0.64,1.072,0,1
			c2.443-0.275,5.379-0.316,7.33-2.007c0.265-0.229,0.139-0.607-0.101-0.785C6.903,7.109,4.174,6.715,1.741,5.685
			c0,0.288,0,0.576,0,0.863c2.876-1.887,6.709-1.153,9.403-3.45c0.264-0.225,0.142-0.613-0.101-0.785
			c-2.204-1.564-5.03-1.14-7.578-1.231C2.82,1.059,2.822,2.059,3.465,2.082L3.465,2.082z"/>
	</g>
</g>
</svg>
