<?xml version="1.0" encoding="utf-8"?>
<!-- Generator: Adobe Illustrator 16.0.0, SVG Export Plug-In . SVG Version: 6.00 Build 0)  -->
<!DOCTYPE svg PUBLIC "-//W3C//DTD SVG 1.1//EN" "http://www.w3.org/Graphics/SVG/1.1/DTD/svg11.dtd">
<svg version="1.1" id="Layer_1" xmlns="http://www.w3.org/2000/svg" xmlns:xlink="http://www.w3.org/1999/xlink" x="0px" y="0px"
	 width="12px" height="12px" viewBox="0 0 12 12" enable-background="new 0 0 12 12" xml:space="preserve">
<g>
	<g>
		<path d="M3.209,3.593c0.645,0,0.645-1,0-1S2.564,3.593,3.209,3.593L3.209,3.593z"/>
	</g>
</g>
<g>
	<g>
		<path d="M7.163,3.593c0.645,0,0.645-1,0-1S6.519,3.593,7.163,3.593L7.163,3.593z"/>
	</g>
</g>
<g>
	<g>
		<path d="M6.813,7.663c0.645,0,0.645-1,0-1S6.169,7.663,6.813,7.663L6.813,7.663z"/>
	</g>
</g>
<g>
	<g>
		<path d="M3.325,7.663c0.645,0,0.645-1,0-1S2.681,7.663,3.325,7.663L3.325,7.663z"/>
	</g>
</g>
<g>
	<g>
		<path d="M5.303,4.174c0.645,0,0.645-1,0-1S4.658,4.174,5.303,4.174L5.303,4.174z"/>
	</g>
</g>
<g>
	<g>
		<path d="M9.721,7.896c0.645,0,0.645-1,0-1S9.076,7.896,9.721,7.896L9.721,7.896z"/>
	</g>
</g>
<g>
	<g>
		<path d="M6.349,9.407c0.645,0,0.645-1,0-1S5.704,9.407,6.349,9.407L6.349,9.407z"/>
	</g>
</g>
<g>
	<g>
		<path d="M3.325,9.872c0.645,0,0.645-1,0-1S2.681,9.872,3.325,9.872L3.325,9.872z"/>
	</g>
</g>
<g>
	<g>
		<path d="M8.325,5.686c0.645,0,0.645-1,0-1S7.681,5.686,8.325,5.686L8.325,5.686z"/>
	</g>
</g>
</svg>
