<?xml version="1.0" encoding="utf-8"?>
<!-- Generator: Adobe Illustrator 16.0.0, SVG Export Plug-In . SVG Version: 6.00 Build 0)  -->
<!DOCTYPE svg PUBLIC "-//W3C//DTD SVG 1.1//EN" "http://www.w3.org/Graphics/SVG/1.1/DTD/svg11.dtd">
<svg version="1.1" xmlns="http://www.w3.org/2000/svg" xmlns:xlink="http://www.w3.org/1999/xlink" x="0px" y="0px" width="120px"
	 height="120px" viewBox="0 0 120 120" enable-background="new 0 0 120 120" xml:space="preserve">
<g id="Layer_1">
	<g>
		<g>
			<path d="M10,32c0.457,10.834,0.101,21.684,1,32.5c0.212,2.551,4.214,2.572,4,0c-0.899-10.816-0.543-21.666-1-32.5
				C13.892,29.43,9.892,29.42,10,32L10,32z"/>
		</g>
	</g>
	<g>
		<g>
			<path d="M12.51,31.727c5.731-3.723,10.835-8.252,15.904-12.813c1.922-1.729-0.917-4.548-2.828-2.828
				c-4.818,4.334-9.646,8.648-15.096,12.187C8.336,29.672,10.339,33.137,12.51,31.727L12.51,31.727z"/>
		</g>
	</g>
	<g>
		<g>
			<path d="M11.531,47.429c4.942-2.058,9.214-5.006,13.479-8.202c2.037-1.527,0.047-5.002-2.02-3.454
				c-3.945,2.958-7.941,5.891-12.521,7.798C8.123,44.548,9.15,48.42,11.531,47.429L11.531,47.429z"/>
		</g>
	</g>
	<g>
		<g>
			<path d="M30.071,11.532C32.952,26.182,32.528,41.148,33,56c0.082,2.573,4.082,2.581,4,0c-0.483-15.221-0.12-30.519-3.071-45.532
				C33.432,7.938,29.576,9.012,30.071,11.532L30.071,11.532z"/>
		</g>
	</g>
	<g>
		<g>
			<path d="M34.01,61.227c5.644-2.551,11.355-4.949,17-7.5c2.348-1.061,0.312-4.507-2.02-3.454c-5.644,2.551-11.355,4.949-17,7.5
				C29.643,58.834,31.679,62.28,34.01,61.227L34.01,61.227z"/>
		</g>
	</g>
	<g>
		<g>
			<path d="M33.531,38.429c2.9-1.008,5.602-2.492,8.5-3.5c2.421-0.842,1.38-4.707-1.062-3.857c-2.9,1.008-5.602,2.492-8.5,3.5
				C30.048,35.413,31.089,39.278,33.531,38.429L33.531,38.429z"/>
		</g>
	</g>
	<g>
		<g>
			<path d="M31.531,13.929c6.027-1.811,11.157-5.467,16.479-8.702c2.2-1.337,0.191-4.798-2.02-3.454
				c-5.008,3.044-9.85,6.595-15.521,8.298C28.004,10.812,29.055,14.672,31.531,13.929L31.531,13.929z"/>
		</g>
	</g>
	<g>
		<g>
			<path d="M56,4c1.345,17.618-1.471,35.049-3.5,52.5c-0.298,2.56,3.706,2.531,4,0C58.529,39.049,61.345,21.618,60,4
				C59.805,1.445,55.804,1.426,56,4L56,4z"/>
		</g>
	</g>
	<g>
		<g>
			<path d="M56.571,3.532c6.362,17.116,8.207,35.521,15,52.5c0.946,2.364,4.816,1.333,3.857-1.063
				c-6.793-16.979-8.638-35.384-15-52.5C59.538,0.073,55.671,1.109,56.571,3.532L56.571,3.532z"/>
		</g>
	</g>
	<g>
		<g>
			<path d="M56.531,42.929c4.314-0.934,8.686-1.567,13-2.5c2.521-0.545,1.452-4.401-1.062-3.857c-4.314,0.934-8.686,1.567-13,2.5
				C52.947,39.617,54.017,43.473,56.531,42.929L56.531,42.929z"/>
		</g>
	</g>
	<g>
		<g>
			<path d="M81,9.397C82.22,24.911,82.19,40.466,83,56c0.134,2.566,4.135,2.579,4,0c-0.81-15.534-0.78-31.089-2-46.603
				C84.799,6.844,80.798,6.824,81,9.397L81,9.397z"/>
		</g>
	</g>
	<g>
		<g>
			<path d="M70.99,4.727c6.708,3.596,13.493,7.044,20,11c2.211,1.344,4.22-2.117,2.02-3.454c-6.508-3.956-13.293-7.404-20-11
				C70.736,0.055,68.717,3.508,70.99,4.727L70.99,4.727z"/>
		</g>
	</g>
	<g>
		<g>
			<path d="M10,69.5c-0.025,6.143-1.59,31.548,10.607,28.38c5.205-1.352,6.335-8.237,7.051-12.703
				C28.598,79.312,28.488,73.396,29,67.5c0.224-2.571-3.778-2.549-4,0c-0.346,3.985-0.356,7.996-0.678,11.986
				c-0.347,4.291-0.599,10.59-3.671,13.975c-3.957,4.359-6.173-8.861-6.334-10.396C13.844,78.561,13.981,74.02,14,69.5
				C14.011,66.92,10.011,66.921,10,69.5L10,69.5z"/>
		</g>
	</g>
	<g>
		<g>
			<path d="M33.5,64.5c1.889,15.544-0.437,31.097-2.5,46.5c-0.342,2.55,3.663,2.518,4,0c2.063-15.404,4.389-30.955,2.5-46.5
				C37.193,61.973,33.189,61.943,33.5,64.5L33.5,64.5z"/>
		</g>
	</g>
	<g>
		<g>
			<path d="M35.51,68.227c3.511-2.67,7.59-4.466,10.964-0.717c3.149,3.5,3.81,9.296,3.957,13.771
				c0.283,8.55-3.31,22.278-13.921,14.491c-2.084-1.528-4.075,1.945-2.02,3.454c26.728,19.611,26.424-55.307-1-34.454
				C31.466,66.312,33.455,69.789,35.51,68.227L35.51,68.227z"/>
		</g>
	</g>
	<g>
		<g>
			<path d="M33.586,100.414c4.79,4.503,7.604,10.394,10.688,16.095c1.227,2.27,4.681,0.25,3.453-2.019
				c-3.247-6.004-6.271-12.166-11.312-16.905C34.537,95.821,31.703,98.645,33.586,100.414L33.586,100.414z"/>
		</g>
	</g>
	<g>
		<g>
			<path d="M59.071,64.532C62.574,82.625,60.072,101.383,58,119.5c-0.293,2.561,3.711,2.532,4,0
				c2.119-18.528,4.51-37.532,0.929-56.032C62.438,60.938,58.584,62.012,59.071,64.532L59.071,64.532z"/>
		</g>
	</g>
	<g>
		<g>
			<path d="M61.01,120.227c6.419-2.995,12.672-6.32,19-9.5c2.305-1.159,0.279-4.609-2.02-3.454c-6.327,3.18-12.58,6.505-19,9.5
				C56.654,117.863,58.688,121.31,61.01,120.227L61.01,120.227z"/>
		</g>
	</g>
	<g>
		<g>
			<path d="M64.531,88.929c4.627-1.576,9.102-3.532,13.479-5.702c2.311-1.146,0.283-4.596-2.02-3.454
				c-4.07,2.019-8.219,3.833-12.521,5.298C61.041,85.898,62.083,89.763,64.531,88.929L64.531,88.929z"/>
		</g>
	</g>
	<g>
		<g>
			<path d="M60.5,66.5c6.945-0.13,13.443-2.038,20.031-4.071c2.457-0.759,1.408-4.62-1.062-3.857
				C73.228,60.498,67.086,62.376,60.5,62.5C57.924,62.548,57.919,66.548,60.5,66.5L60.5,66.5z"/>
		</g>
	</g>
	<g>
		<g>
			<path d="M83.5,65c1.416,15.465,1.061,31.009,2,46.5c0.155,2.562,4.156,2.578,4,0c-0.939-15.491-0.584-31.035-2-46.5
				C87.267,62.453,83.265,62.431,83.5,65L83.5,65z"/>
		</g>
	</g>
	<g>
		<g>
			<path d="M86.031,67.429c5.854-1.142,10.885,3.102,13.473,7.951c2.485,4.655,1.885,10.063,0.295,14.86
				c-3.021,9.108-10.806,16.546-17.713,22.847c-1.91,1.742,0.927,4.562,2.828,2.828c8.622-7.864,19.014-18.221,20.13-30.543
				c1.022-11.285-7.489-24.253-20.075-21.799C82.438,64.065,83.512,67.92,86.031,67.429L86.031,67.429z"/>
		</g>
	</g>
	<g>
		<g>
			<path d="M97.5,39.5c4.226-0.075,8.358-1.002,12.531-1.571c2.547-0.348,1.458-4.201-1.062-3.857
				c-3.823,0.522-7.598,1.36-11.469,1.429C94.924,35.545,94.919,39.545,97.5,39.5L97.5,39.5z"/>
		</g>
	</g>
	<g>
		<g>
			<path d="M110.948,60.79c0.587,6.565-0.08,13.096-0.419,19.655c-0.134,2.579,3.867,2.566,4,0
				c0.339-6.559,1.006-13.09,0.419-19.655C114.721,58.242,110.719,58.22,110.948,60.79L110.948,60.79z"/>
		</g>
	</g>
	<g>
		<g>
			<path d="M110.554,92.21c2.579,0,2.579-4,0-4S107.975,92.21,110.554,92.21L110.554,92.21z"/>
		</g>
	</g>
</g>
<g id="Layer_2">
</g>
</svg>
