<?xml version="1.0" encoding="utf-8"?>
<!-- Generator: Adobe Illustrator 16.0.0, SVG Export Plug-In . SVG Version: 6.00 Build 0)  -->
<!DOCTYPE svg PUBLIC "-//W3C//DTD SVG 1.1//EN" "http://www.w3.org/Graphics/SVG/1.1/DTD/svg11.dtd">
<svg version="1.1" xmlns="http://www.w3.org/2000/svg" xmlns:xlink="http://www.w3.org/1999/xlink" x="0px" y="0px" width="120px"
	 height="120px" viewBox="0 0 120 120" enable-background="new 0 0 120 120" xml:space="preserve">
<g id="Layer_1">
	<g id="layer1" inkscape:groupmode="layer" inkscape:label="Layer 1">
		<path id="path5402" fill="#E63228" d="M42.386,0c-0.37,0-1.106,0.442-1.647,0.978c-1.088,1.08-1.004,2.091,0.471,5.327
			c0.468,1.028,1.214,2.708,1.662,3.736c0.447,1.027,1.248,2.814,1.764,3.97s1.104,2.522,1.323,3.036
			c0.219,0.513,1.065,2.405,1.882,4.203c0.815,1.798,2.018,4.53,2.661,6.071c0.644,1.542,1.613,3.807,2.161,5.035
			c0.739,1.659,1.191,2.165,1.735,1.941c0.402-0.167,1.073-0.404,1.499-0.526c0.684-0.196,0.695-0.36,0.118-1.459
			c-0.359-0.684-0.651-1.571-0.662-1.956s-0.427-1.541-0.927-2.569c-0.499-1.027-0.917-2.222-0.926-2.656
			c-0.01-0.435-0.216-0.904-0.456-1.051c-0.238-0.146-0.582-0.942-0.765-1.766c-0.182-0.823-0.513-1.825-0.735-2.218
			c-0.713-1.261-5.193-13.253-5.719-15.31c-0.277-1.091-0.681-1.984-0.896-1.984c-0.215,0-0.383-0.29-0.383-0.657
			C44.546,1.285,43.252,0,42.386,0z M115.469,11.296c-0.929,0.104-2.008,1.29-6.233,6.231c-1.294,1.513-3.118,3.604-4.043,4.641
			c-0.926,1.038-2.914,3.354-4.426,5.152s-3.854,4.53-5.204,6.071c-4.107,4.688-6.46,7.409-8.615,9.954
			c-1.385,1.634-2.417,2.423-3.146,2.423c-2.511,0-3.61,3.898-1.515,5.356c0.576,0.4,1.356,0.715,1.735,0.715
			c1.135,0,2.855-1.938,2.866-3.225c0.008-0.871,1.192-2.438,4.279-5.648c2.346-2.44,7.048-7.351,10.452-10.917
			c3.405-3.566,8.313-8.681,10.895-11.37c6.1-6.353,6.169-6.445,5.396-7.881c-0.337-0.625-1.15-1.27-1.794-1.43
			C115.882,11.311,115.684,11.272,115.469,11.296z M80.302,31.466c-5.114-0.018-10.62,0.335-13.879,1.139
			c-7.15,1.762-8.815,2.42-8.438,3.298c0.182,0.423,0.632,1.599,0.999,2.627c1.099,3.07,1.761,4.437,2.162,4.437
			c0.674,0,2.69,2.449,2.69,3.269c0,0.438-0.527,1.363-1.161,2.043c-1.423,1.523-3.429,1.618-4.927,0.234
			c-0.896-0.83-1.035-1.333-0.823-2.904c0.247-1.818-0.144-3.042-2.601-8.1l-0.5-1.021l-3.353,1.664
			c-10.293,5.128-16.853,11.571-19.098,18.724c-0.344,1.093-0.539,2.078-0.426,2.189c0.111,0.111,3.952,0.343,8.541,0.525
			c7.069,0.281,8.479,0.228,9.174-0.365c1.401-1.195,2.481-1.339,4.146-0.555c1.533,0.722,1.893,1.481,1.617,3.444
			c-0.3,2.148-3.814,3.16-5.425,1.562c-0.688-0.684-1.695-0.73-8.82-0.452c-4.427,0.172-8.133,0.396-8.234,0.496
			c-0.419,0.417,1.38,3.034,3.221,4.685c3.428,3.075,8.918,5.08,16.084,5.867c9.091,0.999,22.101-1.304,32.167-5.678
			c6.52-2.832,14.578-8.465,17.158-11.997c0.62-0.85,1.364-1.806,1.66-2.13c2.117-2.32,3.377-7.966,2.544-11.413
			c-0.498-2.061-2.869-5.692-3.719-5.692c-0.704,0-6.698,6.355-6.954,7.371c-0.459,1.813,0.57,2.437,3.983,2.437
			c3.512,0,3.407,0.327-0.617,1.868c-5.022,1.922-5.821,3.41-3.983,7.428c0.516,1.13,0.874,2.124,0.793,2.204
			s-1.183-0.164-2.44-0.54c-2.759-0.824-4.068-0.859-5.646-0.146c-1.301,0.588-3.543,4.591-3.543,6.305
			c0,0.577-0.226,1.169-0.485,1.328c-0.542,0.332-1.396-1.643-1.396-3.211c0-0.582-0.727-1.883-1.603-2.889
			c-1.541-1.771-1.688-1.839-4.588-1.839c-1.646,0-3.834,0.178-4.866,0.395l-1.882,0.394l2.706-2.802
			c2.443-2.544,2.704-3.008,2.704-4.86c0-2.188-0.955-3.844-3.528-6.129l-1.411-1.255l1.882,0.365
			c6.5,1.251,9.44-0.679,10.365-6.771c0.165-1.092,0.431-1.985,0.603-1.985c0.172,0,0.772,1.04,1.338,2.306
			c1.343,3.007,2.379,3.573,4.19,2.276c1.426-1.02,5.435-5.458,5.733-6.349C92.795,32.132,86.877,31.488,80.302,31.466z
			 M108.411,57.502c-0.17,0.02-0.34,0.487-0.485,1.459c-0.363,2.462-3.228,16.4-3.527,17.163c-0.151,0.385-0.536,2.171-0.853,3.97
			c-0.317,1.798-0.816,4.32-1.104,5.604c-0.287,1.285-0.959,4.437-1.484,7.006c-1.158,5.656-1.877,8.172-2.353,8.172
			c-0.196,0-5.51-5.029-11.806-11.179L75.362,78.519l-0.78,1.751c-0.422,0.965-0.925,2.68-1.117,3.809
			c-0.191,1.129-0.53,2.378-0.749,2.773c-0.22,0.395-1.046,3.132-1.853,6.085c-0.807,2.955-1.762,6.422-2.117,7.706
			c-0.355,1.285-1.009,3.754-1.456,5.488c-0.962,3.733-1.627,3.968-3.91,1.401c-2.118-2.38-8.138-9.093-8.719-9.72
			c-0.258-0.278-1.635-1.82-3.058-3.429c-1.423-1.609-3.011-3.389-3.528-3.955c-0.518-0.567-2.317-2.581-3.999-4.466
			s-3.298-3.656-3.572-3.941c-0.276-0.285-1.492-1.634-2.705-2.992c-2.405-2.691-2.731-2.388-1.221,1.124
			c0.538,1.253,1.305,3.013,1.69,3.911c0.387,0.899,0.985,2.266,1.338,3.036c0.604,1.319,1.38,3.088,3.265,7.472
			c0.44,1.027,1.087,2.498,1.441,3.27c0.561,1.228,1.802,4.048,3.071,7.005c2.34,5.445,3.115,6.777,5.16,8.728
			c2.744,2.617,7.046,4.728,11.527,5.677c6.833,1.448,16.566,0.756,24.257-1.737c7.858-2.545,12.765-5.428,17.613-10.333
			c3.913-3.958,4.089-4.176,5.396-6.815c1.569-3.168,1.843-5.993,1.162-12.041c-0.336-2.984-0.843-7.531-1.132-10.099
			s-0.829-6.667-1.191-9.107c-0.363-2.44-0.795-6.065-0.97-8.056C108.998,58.702,108.697,57.47,108.411,57.502z M18.142,59.283
			c-6.994-0.017-15.47,0.223-15.849,0.599c-0.737,0.732-0.719,2.823,0.029,3.605c0.474,0.494,3.108,0.555,13.496,0.306
			c7.106-0.17,13.009-0.406,13.115-0.511c0.104-0.104,0.062-0.9-0.104-1.78c-0.249-1.321-0.56-1.658-1.764-1.897
			C26.002,59.393,22.339,59.293,18.142,59.283z"/>
	</g>
</g>
<g id="Layer_2">
</g>
</svg>
