<?xml version="1.0" encoding="utf-8"?>
<!-- Generator: Adobe Illustrator 16.0.0, SVG Export Plug-In . SVG Version: 6.00 Build 0)  -->
<!DOCTYPE svg PUBLIC "-//W3C//DTD SVG 1.1//EN" "http://www.w3.org/Graphics/SVG/1.1/DTD/svg11.dtd">
<svg version="1.1" id="Layer_1" xmlns="http://www.w3.org/2000/svg" xmlns:xlink="http://www.w3.org/1999/xlink" x="0px" y="0px"
	 width="12px" height="12px" viewBox="0 0 12 12" enable-background="new 0 0 12 12" xml:space="preserve">
<g>
	<g>
		<path d="M2.983,2.216c-0.894,2.198-1,5.169-0.278,7.418c0.713,2.219,2.956,2.419,4.648,1.094c2.223-1.74,2.842-6.253,2.556-8.847
			C9.532-1.536,6.205-1.823,4.042,0.135c-0.479,0.434,0.23,1.139,0.707,0.707C6.26-0.526,8.246-0.573,8.872,1.706
			c0.287,1.047,0.054,2.345-0.119,3.381c-0.331,1.982-1.017,4.717-3.124,5.44c-3.308,1.135-2.285-6.563-1.682-8.046
			C4.19,1.884,3.223,1.626,2.983,2.216L2.983,2.216z"/>
	</g>
</g>
</svg>
