<?xml version="1.0" encoding="utf-8"?>
<!-- Generator: Adobe Illustrator 16.0.0, SVG Export Plug-In . SVG Version: 6.00 Build 0)  -->
<!DOCTYPE svg PUBLIC "-//W3C//DTD SVG 1.1//EN" "http://www.w3.org/Graphics/SVG/1.1/DTD/svg11.dtd">
<svg version="1.1" xmlns="http://www.w3.org/2000/svg" xmlns:xlink="http://www.w3.org/1999/xlink" x="0px" y="0px" width="120px"
	 height="120px" viewBox="0 0 120 120" enable-background="new 0 0 120 120" xml:space="preserve">
<g id="Layer_1">
	<g>
		<g>
			<path d="M22.405,12.468c-2.718,17.425-6.325,34.688-9.667,52c-0.486,2.52,3.369,3.595,3.857,1.063
				c3.342-17.312,6.949-34.575,9.667-52C26.656,11.009,22.802,9.926,22.405,12.468L22.405,12.468z"/>
		</g>
	</g>
	<g>
		<g>
			<path d="M23.001,12.667c0.907,18.439,7.826,35.604,12.737,53.198c0.692,2.481,4.552,1.426,3.857-1.063
				c-4.809-17.224-11.707-34.083-12.595-52.135C26.875,10.1,22.874,10.087,23.001,12.667L23.001,12.667z"/>
		</g>
	</g>
	<g>
		<g>
			<path d="M35.001,8.333c-1.031,19.589,7.764,37.704,9.333,57c0.207,2.552,4.209,2.573,4,0c-1.567-19.274-10.361-37.47-9.333-57
				C39.137,5.754,35.136,5.768,35.001,8.333L35.001,8.333z"/>
		</g>
	</g>
	<g>
		<g>
			<path d="M52.405,23.468c-3.246,13.552-5.36,27.326-8,41c-0.486,2.52,3.368,3.595,3.857,1.063c2.64-13.675,4.754-27.448,8-41
				C56.863,22.024,53.006,20.96,52.405,23.468L52.405,23.468z"/>
		</g>
	</g>
	<g>
		<g>
			<path d="M52.738,24.865c2.697,14.839,6.663,29.383,10.334,44c0.628,2.5,4.486,1.439,3.857-1.063
				c-3.671-14.617-7.637-29.161-10.334-44C56.135,21.267,52.28,22.344,52.738,24.865L52.738,24.865z"/>
		</g>
	</g>
	<g>
		<g>
			<path d="M75.102,1.923C71.59,23.95,66.918,45.775,63.405,67.802c-0.402,2.522,3.452,3.605,3.857,1.063
				c3.512-22.027,8.185-43.852,11.696-65.879C79.361,0.464,75.507-0.619,75.102,1.923L75.102,1.923z"/>
		</g>
	</g>
	<g>
		<g>
			<path d="M36.607,73.324c-5.021,9.326-8.08,20.982-7.065,31.595c0.865,9.05,8.599,14.988,16.321,8.162
				c6.754-5.97,6.678-19.743,6.652-27.905c-0.021-7.369-4.612-19.664-13.858-13.569c-2.143,1.413-0.142,4.878,2.02,3.454
				c7.957-5.247,7.915,10.798,7.741,14.878c-0.266,6.256-0.915,13.569-4.289,19.018c-2.908,4.697-8.259,3.853-9.966-1.147
				c-1.162-3.404-0.897-7.277-0.593-10.797c0.639-7.388,2.979-15.146,6.49-21.668C41.283,73.072,37.83,71.052,36.607,73.324
				L36.607,73.324z"/>
		</g>
	</g>
	<g>
		<g>
			<path d="M59.667,74.667c0.179,15.268-3.36,29.742-6.262,44.622c-0.491,2.52,3.364,3.594,3.857,1.063
				c2.97-15.235,6.587-30.058,6.404-45.686C63.637,72.089,59.637,72.086,59.667,74.667L59.667,74.667z"/>
		</g>
	</g>
	<g>
		<g>
			<path d="M60.273,75.676c4.666,9.121,6.09,19.409,8.799,29.189c0.688,2.482,4.547,1.427,3.857-1.063
				c-2.81-10.141-4.363-20.686-9.201-30.144C62.553,71.36,59.102,73.385,60.273,75.676L60.273,75.676z"/>
		</g>
	</g>
	<g>
		<g>
			<path d="M78.738,76.468c-2.364,9.292-5.292,18.396-9.131,27.189c-1.021,2.339,2.424,4.378,3.453,2.019
				c3.98-9.118,7.082-18.506,9.535-28.145C83.232,75.03,79.374,73.97,78.738,76.468L78.738,76.468z"/>
		</g>
	</g>
	<g>
		<g>
			<path d="M79.072,76.199c1.892,12.078,1.683,24.354,3.262,36.468c0.328,2.521,4.333,2.552,4,0
				c-1.625-12.471-1.457-25.095-3.404-37.532C82.531,72.593,78.678,73.676,79.072,76.199L79.072,76.199z"/>
		</g>
	</g>
	<g>
		<g>
			<path d="M87.334,74.667c-0.857,13.026,0.605,25.987,1,39c0.078,2.573,4.078,2.581,4,0c-0.395-13.013-1.857-25.974-1-39
				C91.504,72.09,87.503,72.107,87.334,74.667L87.334,74.667z"/>
		</g>
	</g>
	<g>
		<g>
			<path d="M91.011,113.061c5.806-3.55,10.172-8.699,14.737-13.646c1.746-1.892-1.075-4.728-2.828-2.828
				c-4.322,4.684-8.43,9.658-13.929,13.021C86.795,110.95,88.804,114.41,91.011,113.061L91.011,113.061z"/>
		</g>
	</g>
	<g>
		<g>
			<path d="M91.011,91.727c2.331-1.633,4.86-2.932,7.333-4.333c2.243-1.272,0.228-4.728-2.02-3.454
				c-2.472,1.402-5.001,2.7-7.333,4.333C86.896,89.741,88.892,93.211,91.011,91.727L91.011,91.727z"/>
		</g>
	</g>
	<g>
		<g>
			<path d="M89.865,74.929c4.906-1.362,9.532-3.408,14.146-5.535c2.34-1.079,0.307-4.526-2.02-3.454
				c-4.304,1.985-8.612,3.86-13.188,5.131C86.32,71.761,87.376,75.62,89.865,74.929L89.865,74.929z"/>
		</g>
	</g>
	<g>
		<g>
			<path d="M107.738,64.199c0.855,4.109,0.654,8.302,0.929,12.468c0.169,2.56,4.17,2.577,4,0c-0.299-4.533-0.142-9.06-1.071-13.532
				C111.07,60.611,107.215,61.682,107.738,64.199L107.738,64.199z"/>
		</g>
	</g>
	<g>
		<g>
			<path d="M110.001,90c2.579,0,2.579-4,0-4S107.422,90,110.001,90L110.001,90z"/>
		</g>
	</g>
	<g>
		<g>
			<path d="M78.096,42.584c13.81,4.027,21.315-11.943,22.802-23.068c0.537-4.021-0.76-8.978-5.689-8.085
				c-5.293,0.958-9.285,8.749-11.694,12.928c-5.682,9.857-13.43,26.114-7.066,37.215c7.495,13.077,24.434-1.119,31.695-6.522
				c2.044-1.521,0.053-4.996-2.02-3.454c-5.82,4.331-15.605,14.083-23.535,10.38c-9.113-4.255-2.472-20.868,0.188-27.159
				c1.606-3.8,3.543-7.472,5.705-10.983c1.175-1.909,2.504-3.721,3.943-5.436c1.256-1.497,4.273-4.943,4.57-1.185
				c0.722,9.119-6.926,24.693-17.834,21.512C76.678,38.003,75.625,41.864,78.096,42.584L78.096,42.584z"/>
		</g>
	</g>
	<g>
		<g>
			<path d="M32.748,71.919c-4.664-4.59-9.858-3.931-13.221,1.666c-1.571,2.616-2.19,5.843-2.248,8.854
				c-0.032,1.722,0.414,3.528,0.75,5.202c0.316,1.575,0.568,3.12,0.628,4.727c0.03,0.812-2.734,6.933-4.263,3.957
				c-1.18-2.295-4.631-0.271-3.455,2.019c3.193,6.214,11.205,0.507,11.619-4.721c0.327-4.14-1.339-8.016-1.261-12.129
				c0.093-4.863,3.633-11.654,8.622-6.745C31.76,76.558,34.589,73.73,32.748,71.919L32.748,71.919z"/>
		</g>
	</g>
	<g>
		<g>
			<path d="M17.334,55c5.39-0.411,10.651-1.616,16-2.333c2.518-0.337,2.551-4.342,0-4c-5.344,0.716-10.619,1.923-16,2.333
				C14.779,51.195,14.76,55.196,17.334,55L17.334,55z"/>
		</g>
	</g>
</g>
<g id="Layer_2">
</g>
</svg>
