<?xml version="1.0" encoding="utf-8"?>
<!-- Generator: Adobe Illustrator 16.0.0, SVG Export Plug-In . SVG Version: 6.00 Build 0)  -->
<!DOCTYPE svg PUBLIC "-//W3C//DTD SVG 1.1//EN" "http://www.w3.org/Graphics/SVG/1.1/DTD/svg11.dtd">
<svg version="1.1" xmlns="http://www.w3.org/2000/svg" xmlns:xlink="http://www.w3.org/1999/xlink" x="0px" y="0px" width="120px"
	 height="120px" viewBox="0 0 120 120" enable-background="new 0 0 120 120" xml:space="preserve">
<g id="Layer_1">
	<g>
		<g>
			<path d="M15.013,22.611c1.296,10.872,1.524,21.732,0.054,32.6c-0.256,1.891,2.635,2.708,2.893,0.798
				c1.51-11.154,1.385-22.23,0.054-33.397C17.787,20.715,14.784,20.693,15.013,22.611L15.013,22.611z"/>
		</g>
	</g>
	<g>
		<g>
			<path d="M15.411,24.058c6.273-1.761,11.164-6.189,16.857-9.15c1.717-0.893,0.2-3.482-1.514-2.591
				c-5.441,2.831-10.153,7.167-16.141,8.849C12.754,21.687,13.545,24.582,15.411,24.058L15.411,24.058z"/>
		</g>
	</g>
	<g>
		<g>
			<path d="M12.411,40.557c6.737-1.781,11.696-5.716,15.896-11.188c1.179-1.535-1.43-3.026-2.59-1.514
				c-3.713,4.838-8.167,8.24-14.103,9.81C9.745,38.158,10.539,41.052,12.411,40.557L12.411,40.557z"/>
		</g>
	</g>
	<g>
		<g>
			<path d="M36.012,6.112c1.332,14.495,0.061,28.982,0,43.498c-0.008,1.935,2.992,1.934,3,0c0.061-14.516,1.332-29.002,0-43.498
				C38.836,4.203,35.835,4.186,36.012,6.112L36.012,6.112z"/>
		</g>
	</g>
	<g>
		<g>
			<path d="M36.769,53.905c6.437-3.317,12.222-7.669,17.999-12c1.528-1.146,0.035-3.752-1.514-2.591
				c-5.777,4.331-11.562,8.683-17.999,12C33.534,52.201,35.053,54.79,36.769,53.905L36.769,53.905z"/>
		</g>
	</g>
	<g>
		<g>
			<path d="M38.269,31.406c3-1.5,6-3,9-4.5c1.731-0.866,0.211-3.453-1.514-2.591c-3,1.5-6,3-9,4.5
				C35.023,29.681,36.544,32.268,38.269,31.406L38.269,31.406z"/>
		</g>
	</g>
	<g>
		<g>
			<path d="M36.012,9.112c5.039-0.099,9.961-1.401,14.999-1.5c1.933-0.038,1.936-3.038,0-3c-5.038,0.099-9.961,1.401-14.999,1.5
				C34.08,6.15,34.076,9.15,36.012,9.112L36.012,9.112z"/>
		</g>
	</g>
	<g>
		<g>
			<path d="M64.51,3.112c-1.667,20.922-8.68,40.787-13.445,61.098c-0.441,1.882,2.451,2.681,2.893,0.798
				C58.787,44.424,65.82,24.315,67.51,3.112C67.664,1.183,64.662,1.197,64.51,3.112L64.51,3.112z"/>
		</g>
	</g>
	<g>
		<g>
			<path d="M61.564,5.011C66.033,19.726,71.79,34.226,73.51,49.61c0.213,1.9,3.215,1.921,3,0
				c-1.753-15.681-7.496-30.396-12.053-45.396C63.896,2.368,61,3.155,61.564,5.011L61.564,5.011z"/>
		</g>
	</g>
	<g>
		<g>
			<path d="M61.511,36.111c2.091-0.092,3.941-1.409,5.999-1.5c1.927-0.085,1.936-3.085,0-3c-2.091,0.092-3.941,1.409-5.999,1.5
				C59.584,33.196,59.576,36.196,61.511,36.111L61.511,36.111z"/>
		</g>
	</g>
	<g>
		<g>
			<path d="M82.51,9.112c-0.101,18.545-2.899,36.951-3,55.497c-0.011,1.935,2.989,1.934,3,0c0.101-18.546,2.899-36.952,3-55.497
				C85.521,7.177,82.521,7.178,82.51,9.112L82.51,9.112z"/>
		</g>
	</g>
	<g>
		<g>
			<path d="M68.611,15.058c7.984,1.577,16.014,2.923,23.999,4.5c1.889,0.373,2.694-2.518,0.797-2.893
				c-7.985-1.577-16.014-2.923-23.999-4.5C67.52,11.792,66.714,14.684,68.611,15.058L68.611,15.058z"/>
		</g>
	</g>
	<g>
		<g>
			<path d="M91.562,26.712c-1.191,6.846-0.605,13.687,1.5,20.297c0.254,0.796,1.026,1.246,1.845,1.047
				c8.96-2.175,10.042-11.591,10.102-19.445c0.015-1.935-2.985-1.934-3,0c-0.049,6.401-0.41,14.735-7.898,16.553
				c0.614,0.349,1.229,0.698,1.845,1.047c-1.935-6.075-2.598-12.396-1.5-18.701C94.784,25.619,91.894,24.809,91.562,26.712
				L91.562,26.712z"/>
		</g>
	</g>
	<g>
		<g>
			<path d="M18.513,61.609c-0.06,15.513-1.44,30.984-1.5,46.498c-0.008,1.935,2.992,1.934,3,0c0.06-15.513,1.44-30.984,1.5-46.498
				C21.521,59.674,18.521,59.675,18.513,61.609L18.513,61.609z"/>
		</g>
	</g>
	<g>
		<g>
			<path d="M19.573,65.669c1.966-1.587,5.825-4.858,8.59-3.346c2.017,1.104,1.298,4.976,0.923,6.675
				c-1.709,7.743-8.272,13.928-15.472,16.663c-1.79,0.68-1.015,3.581,0.797,2.893c9.25-3.513,17.601-12.014,18.06-22.365
				c0.133-2.979-1.057-5.829-3.92-6.967c-3.812-1.516-8.423,2.166-11.099,4.327C15.946,64.764,18.083,66.873,19.573,65.669
				L19.573,65.669z"/>
		</g>
	</g>
	<g>
		<g>
			<path d="M14.452,83.668c5.761,7.2,11.516,14.427,17.999,20.999c1.36,1.379,3.48-0.743,2.121-2.121
				c-6.483-6.572-12.237-13.799-17.999-20.999C15.364,80.037,13.256,82.174,14.452,83.668L14.452,83.668z"/>
		</g>
	</g>
	<g>
		<g>
			<path d="M51.064,65.71c-3.831,15.012-10.531,28.67-16.499,42.891c-0.749,1.783,2.155,2.554,2.893,0.798
				c5.974-14.234,12.664-27.863,16.499-42.891C54.436,64.632,51.543,63.837,51.064,65.71L51.064,65.71z"/>
		</g>
	</g>
	<g>
		<g>
			<path d="M51.064,68.008c6.527,15.9,16.401,30.07,24.15,45.356c0.875,1.726,3.463,0.207,2.59-1.515
				C70.179,96.806,60.381,82.857,53.957,67.21C53.232,65.446,50.329,66.218,51.064,68.008L51.064,68.008z"/>
		</g>
	</g>
	<g>
		<g>
			<path d="M42.012,96.108c8.221-0.106,16.349-1.466,24.396-3.054c1.897-0.374,1.092-3.265-0.797-2.893
				c-7.792,1.537-15.641,2.844-23.6,2.946C40.078,93.133,40.076,96.133,42.012,96.108L42.012,96.108z"/>
		</g>
	</g>
	<g>
		<g>
			<path d="M76.51,63.109c1.394,17.986,0.052,35.991,0,53.997c-0.006,1.935,2.994,1.934,3,0c0.052-18.006,1.394-36.011,0-53.997
				C79.361,61.193,76.36,61.179,76.51,63.109L76.51,63.109z"/>
		</g>
	</g>
	<g>
		<g>
			<path d="M75.767,70.404c4.229-1.951,10.923-4.846,15.123-1.284c3.31,2.807,3.05,8.447,2.741,12.317
				c-0.795,9.955-4.877,20.948-10.916,28.912c-1.17,1.543,1.438,3.035,2.59,1.515c7.058-9.306,11.641-22.696,11.462-34.379
				c-0.068-4.498-1.399-9.25-5.434-11.713c-5.147-3.143-12.241-0.191-17.08,2.041C72.498,68.623,74.022,71.208,75.767,70.404
				L75.767,70.404z"/>
		</g>
	</g>
	<g>
		<g>
			<path d="M102.062,56.009c1.201,6.343,1.443,12.664,1.445,19.1c0.001,1.935,3.001,1.935,3,0
				c-0.002-6.705-0.303-13.297-1.553-19.898C104.596,53.312,101.705,54.118,102.062,56.009L102.062,56.009z"/>
		</g>
	</g>
	<g>
		<g>
			<path d="M103.509,88.608c1.935,0,1.935-3,0-3S101.574,88.608,103.509,88.608L103.509,88.608z"/>
		</g>
	</g>
</g>
<g id="Layer_2">
</g>
</svg>
