<?xml version="1.0" encoding="utf-8"?>
<!-- Generator: Adobe Illustrator 16.0.0, SVG Export Plug-In . SVG Version: 6.00 Build 0)  -->
<!DOCTYPE svg PUBLIC "-//W3C//DTD SVG 1.1//EN" "http://www.w3.org/Graphics/SVG/1.1/DTD/svg11.dtd">
<svg version="1.1" id="Layer_1" xmlns="http://www.w3.org/2000/svg" xmlns:xlink="http://www.w3.org/1999/xlink" x="0px" y="0px"
	 width="12px" height="12px" viewBox="0 0 12 12" enable-background="new 0 0 12 12" xml:space="preserve">
<g>
	<g>
		<path d="M4.175,2c0,2.636,0,5.271,0,7.907c0,0.645,1,0.645,1,0c0-2.636,0-5.271,0-7.907C5.175,1.355,4.175,1.355,4.175,2L4.175,2z
			"/>
	</g>
</g>
<g>
	<g>
		<path d="M1.768,7.384c3.075,0.235,6.237,0.232,9.202-0.716c0.612-0.195,0.351-1.161-0.266-0.964
			C7.82,6.626,4.758,6.612,1.768,6.384C1.124,6.334,1.129,7.335,1.768,7.384L1.768,7.384z"/>
	</g>
</g>
</svg>
