<?xml version="1.0" encoding="utf-8"?>
<!-- Generator: Adobe Illustrator 16.0.0, SVG Export Plug-In . SVG Version: 6.00 Build 0)  -->
<!DOCTYPE svg PUBLIC "-//W3C//DTD SVG 1.1//EN" "http://www.w3.org/Graphics/SVG/1.1/DTD/svg11.dtd">
<svg version="1.1" xmlns="http://www.w3.org/2000/svg" xmlns:xlink="http://www.w3.org/1999/xlink" x="0px" y="0px" width="120px"
	 height="120px" viewBox="0 0 120 120" enable-background="new 0 0 120 120" xml:space="preserve">
<g id="Layer_1">
	<g>
		<g>
			<path d="M2.996,63.109c36.629-0.08,73.042-4.438,109.495-7.5c1.118-0.094,1.889-1.206,1.295-2.257
				C108.076,43.235,99.012,35,89.868,28.029C79.59,20.192,68.279,13.119,55.893,9.166c-0.749-0.239-1.674,0.272-1.845,1.047
				c-6.852,31.042-11.943,63.042-12.054,94.895c-0.005,1.461,2.08,2.09,2.795,0.757c15.698-29.254,44.505-49.119,58.497-79.496
				c0.366-0.795,0.14-2.027-0.896-2.203c-16.508-2.8-34.559,5.415-49.343,11.716c-17.31,7.377-33.79,16.447-50.808,24.433
				c-1.751,0.822-0.227,3.407,1.514,2.591c15.786-7.408,31.118-15.717,47.063-22.802c9.018-4.007,18.227-7.651,27.712-10.397
				c7.335-2.124,15.415-3.945,23.064-2.648c-0.299-0.734-0.598-1.469-0.896-2.203c-13.987,30.363-42.797,50.237-58.497,79.496
				c0.932,0.252,1.863,0.504,2.795,0.757c0.109-31.602,5.148-63.299,11.946-94.097c-0.615,0.349-1.229,0.698-1.845,1.047
				c11.199,3.575,21.443,9.871,30.884,16.771c9.608,7.021,19.305,15.564,25.217,26.039c0.432-0.752,0.863-1.505,1.295-2.257
				c-36.453,3.061-72.866,7.42-109.495,7.5C1.062,60.114,1.062,63.114,2.996,63.109L2.996,63.109z"/>
		</g>
	</g>
</g>
<g id="Layer_2">
</g>
</svg>
