<?xml version="1.0" encoding="utf-8"?>
<!-- Generator: Adobe Illustrator 16.0.0, SVG Export Plug-In . SVG Version: 6.00 Build 0)  -->
<!DOCTYPE svg PUBLIC "-//W3C//DTD SVG 1.1//EN" "http://www.w3.org/Graphics/SVG/1.1/DTD/svg11.dtd">
<svg version="1.1" xmlns="http://www.w3.org/2000/svg" xmlns:xlink="http://www.w3.org/1999/xlink" x="0px" y="0px" width="120px"
	 height="120px" viewBox="0 0 120 120" enable-background="new 0 0 120 120" xml:space="preserve">
<g id="Layer_1">
	<line fill="none" x1="0" y1="0" x2="0" y2="120"/>
	<line fill="none" x1="120" y1="0" x2="120" y2="120"/>
	<g>
		<path fill="#231F20" d="M11.988,63.693h0.689c0.287,0,0.667-0.427,0.667-0.687v-9.303c0-0.259-0.38-0.665-0.667-0.665h-0.689
			v-3.038h7.763c6.289,0,9.162,2.61,9.162,8.187c0,5.529-2.944,8.424-9.328,8.424h-7.597V63.693z M19.585,63.551
			c2.421,0,3.632-1.612,3.632-5.15c0-3.535-1.164-5.148-3.632-5.148h-0.688v10.299L19.585,63.551L19.585,63.551z"/>
		<path fill="#231F20" d="M29.31,60.419c0-4.01,2.942-6.574,7.045-6.574c4.081,0,7.026,2.564,7.026,6.574
			c0,3.988-2.945,6.407-7.026,6.407C32.252,66.826,29.31,64.407,29.31,60.419 M38.135,60.442c0-2.254-0.713-3.227-1.78-3.227
			c-1.088,0-1.805,0.972-1.805,3.227c0,2.279,0.717,3.3,1.805,3.3C37.422,63.742,38.135,62.722,38.135,60.442"/>
		<path fill="#231F20" d="M44.397,63.837v-6.053c0-0.237-0.357-0.592-0.571-0.592H43.33v-3.109h6.264v7.807
			c0,0.973,0.499,1.186,1.54,1.186c0.193,0,0.551-0.021,0.929-0.094v-5.79h-1.26v-3.109h6.454v9.018c0,0.214,0.331,0.595,0.57,0.595
			h1.398v2.917h-6.167c-0.478,0-0.81-0.356-0.947-1.707c-1.074,1.114-2.398,1.92-4.393,1.92
			C46.058,66.826,44.397,66.137,44.397,63.837"/>
		<path fill="#231F20" d="M63.767,65.285c-0.355,0.711-0.854,1.328-1.185,1.328h-3.488V53.63c0-0.235-0.358-0.592-0.594-0.592
			h-0.644v-3.038h5.677c0.447,0,0.732,0.403,0.732,1.044v4.557c0.903-0.997,2.039-1.757,3.726-1.757c2.373,0,4.63,1.399,4.63,6.148
			c0,4.72-2.257,6.856-5.317,6.856C65.547,66.85,64.457,66.186,63.767,65.285 M64.266,57.761v5.648
			c0.311,0.19,0.665,0.308,1.163,0.308c1.021,0,1.946-0.616,1.946-3.275c0-2.372-0.854-2.871-1.923-2.871
			C65.071,57.571,64.646,57.667,64.266,57.761"/>
		<path fill="#231F20" d="M72.61,63.693H73.3c0.238,0,0.571-0.356,0.571-0.593v-9.47c0-0.235-0.333-0.592-0.571-0.592h-0.734V50
			h5.744c0.469,0,0.759,0.403,0.759,1.045V63.1c0,0.237,0.333,0.593,0.567,0.593h0.714v2.919H72.61V63.693L72.61,63.693z"/>
		<path fill="#231F20" d="M85.488,61.463c0.166,1.591,0.785,2.279,2.206,2.279c1.282,0,1.923-0.452,2.399-1.069h2.729v3.015
			c-1.143,0.642-2.802,1.138-5.672,1.138c-4.89,0-6.859-2.444-6.859-6.407c0-4.01,2.587-6.574,6.787-6.574
			c4.249,0,6.243,1.994,6.243,6.383c0,0.594-0.048,1.069-0.048,1.235H85.488z M85.511,59.02h2.992
			c-0.117-1.614-0.524-2.207-1.424-2.207C86.149,56.813,85.675,57.405,85.511,59.02"/>
		<path fill="#231F20" d="M108.012,53.704v7.735c0,3.75-1.974,5.364-6.459,5.364c-1.945,0-3.419-0.308-4.579-0.901v-3.561h2.66
			c0.307,0.546,0.781,0.996,1.564,0.996c0.83,0,1.235-0.521,1.235-1.424v-8.21c0-0.261-0.379-0.665-0.642-0.665h-0.948V50h6.404
			c0.476,0,0.764,0.403,0.764,1.044V53.704z"/>
	</g>
</g>
<g id="Layer_2">
</g>
</svg>
