<?xml version="1.0" encoding="utf-8"?>
<!-- Generator: Adobe Illustrator 16.0.0, SVG Export Plug-In . SVG Version: 6.00 Build 0)  -->
<!DOCTYPE svg PUBLIC "-//W3C//DTD SVG 1.1//EN" "http://www.w3.org/Graphics/SVG/1.1/DTD/svg11.dtd">
<svg version="1.1" id="Layer_1" xmlns="http://www.w3.org/2000/svg" xmlns:xlink="http://www.w3.org/1999/xlink" x="0px" y="0px"
	 width="12px" height="12px" viewBox="0 0 12 12" enable-background="new 0 0 12 12" xml:space="preserve">
<g>
	<g>
		<path d="M10.709,0.581c0.171,3.117-0.317,6.195-0.465,9.303c-0.031,0.645,0.969,0.642,1,0c0.148-3.107,0.637-6.186,0.465-9.303
			C11.674-0.061,10.674-0.063,10.709,0.581L10.709,0.581z"/>
	</g>
</g>
<g>
	<g>
		<path d="M0.012,0.931c0,3.178,0,6.356,0,9.534c0,0.645,1,0.645,1,0c0-3.178,0-6.356,0-9.534C1.012,0.286,0.012,0.286,0.012,0.931
			L0.012,0.931z"/>
	</g>
</g>
</svg>
