<?xml version="1.0" encoding="utf-8"?>
<!-- Generator: Adobe Illustrator 16.0.0, SVG Export Plug-In . SVG Version: 6.00 Build 0)  -->
<!DOCTYPE svg PUBLIC "-//W3C//DTD SVG 1.1//EN" "http://www.w3.org/Graphics/SVG/1.1/DTD/svg11.dtd">
<svg version="1.1" id="Layer_1" xmlns="http://www.w3.org/2000/svg" xmlns:xlink="http://www.w3.org/1999/xlink" x="0px" y="0px"
	 width="120px" height="120px" viewBox="0 0 120 120" enable-background="new 0 0 120 120" xml:space="preserve">
<g>
	<g>
		<path d="M52.5,20.5c0.748,13.977,1.099,27.971,0.749,41.966c-0.145,5.807,8.855,5.793,9,0c0.35-13.995-0.001-27.989-0.749-41.966
			C61.191,14.728,52.189,14.698,52.5,20.5L52.5,20.5z"/>
	</g>
</g>
<g>
	<g>
		<path d="M57.374,70c11.064,0.391,20.696,8.031,31.96,7.833c5.797-0.102,5.807-9.102,0-9C78.28,69.027,68.483,61.393,57.374,61
			C51.567,60.795,51.588,69.795,57.374,70L57.374,70z"/>
	</g>
</g>
<g>
	<path d="M60,10c27.57,0,50,22.43,50,50s-22.43,50-50,50S10,87.57,10,60S32.43,10,60,10 M60,0C26.862,0,0,26.863,0,60
		s26.862,60,60,60s60-26.863,60-60S93.138,0,60,0L60,0z"/>
</g>
</svg>
