<?xml version="1.0" encoding="utf-8"?>
<!-- Generator: Adobe Illustrator 16.0.0, SVG Export Plug-In . SVG Version: 6.00 Build 0)  -->
<!DOCTYPE svg PUBLIC "-//W3C//DTD SVG 1.1//EN" "http://www.w3.org/Graphics/SVG/1.1/DTD/svg11.dtd">
<svg version="1.1" xmlns="http://www.w3.org/2000/svg" xmlns:xlink="http://www.w3.org/1999/xlink" x="0px" y="0px" width="120px"
	 height="120px" viewBox="0 0 120 120" enable-background="new 0 0 120 120" xml:space="preserve">
<g id="Layer_1">
	<g>
		<path fill="#EF4135" d="M86.902,47.617l30.388-32.029c0.599-0.665,0.856-1.612,0.586-2.538c-0.42-1.412-1.907-2.221-3.317-1.804
			c-0.489,0.147-0.901,0.426-1.221,0.78l-28.69,33.562c-1.083-0.252-2.263,0.062-3.059,0.948c-1.168,1.293-1.067,3.291,0.234,4.455
			c1.293,1.17,3.289,1.065,4.457-0.23C87.076,49.875,87.266,48.665,86.902,47.617"/>
		<path fill="#EF4135" d="M108.837,57.582l-0.009,0.002c0-0.004-0.008-0.008-0.008-0.014c0-0.004,0-0.008,0-0.012
			c-0.028-0.103-0.089-0.186-0.162-0.256c-0.02-0.022-0.04-0.042-0.068-0.061c-0.085-0.059-0.178-0.097-0.278-0.107
			c-0.017,0-0.021-0.012-0.037-0.014c-0.023,0-0.04,0.021-0.064,0.021c-0.032,0.004-0.064-0.002-0.101,0.008
			c-0.057,0.012-0.102,0.046-0.149,0.075c-0.024,0.014-0.049,0.022-0.065,0.041c-0.08,0.067-0.133,0.151-0.169,0.245
			c-0.009,0.018-0.024,0.026-0.032,0.044l0,0v0.008c-0.005,0.01-0.005,0.021-0.009,0.03l-8.757,42.341
			c-0.008,0.234-0.161,0.446-0.396,0.509c-0.238,0.065-0.477-0.044-0.599-0.242L75.636,78.358c-0.141-0.125-0.339-0.182-0.533-0.127
			l0,0c-0.198,0.051-0.339,0.198-0.399,0.378l-8.39,30.062c-0.008,0.23-0.161,0.447-0.399,0.509
			c-0.234,0.061-0.478-0.046-0.595-0.245L36.564,76.646c-0.008-0.008-0.013-0.014-0.021-0.022l-0.008-0.008l0,0
			c-0.013-0.012-0.032-0.012-0.049-0.024c-0.076-0.062-0.165-0.109-0.263-0.127c-0.028-0.006-0.053-0.002-0.081-0.002
			c-0.056-0.002-0.108-0.004-0.165,0.012c-0.036,0.008-0.061,0.031-0.093,0.045c-0.021,0.008-0.045,0-0.065,0.014
			c-0.012,0.006-0.012,0.022-0.028,0.031c-0.084,0.062-0.146,0.141-0.186,0.234c-0.016,0.03-0.024,0.052-0.032,0.084
			c-0.024,0.097-0.036,0.2-0.008,0.303c0,0.004,0.004,0.006,0.004,0.012c0,0.002,0,0.008,0,0.012l-0.004,0.004
			c0,0,13.161,30.473,13.618,31.554c3.58,8.425,17.545,14.446,36.614,9.369l0,0c19.991-5.391,28.408-18.505,27.212-26.325
			C112.809,90.499,108.837,57.582,108.837,57.582"/>
		<path fill="#EF4135" d="M45.18,1.673c-0.336-0.83-1.075-1.473-2.024-1.636C41.7-0.204,40.326,0.776,40.08,2.229
			c-0.085,0.505-0.013,0.998,0.17,1.438L53.746,34.72c1.087-0.444,2.194-0.869,3.33-1.273L45.18,1.673z"/>
		<path fill="#EF4135" d="M4.669,58.897c-0.477,0-0.958,0.125-1.398,0.394c-1.248,0.78-1.628,2.425-0.853,3.677
			c0.514,0.818,1.391,1.253,2.283,1.249l25.438-0.833c-0.044-0.142-0.097-0.281-0.137-0.424c-0.315-1.18-0.444-2.38-0.421-3.588
			L4.669,58.897z"/>
		<path fill="#EF4135" d="M100.997,36.884c-2.695,2.21-7.985,6.854-7.436,8.833c0.477,1.721,2.901,1.742,5.318,1.703l2.17-0.038
			l-2.028,0.764c-3.375,1.271-5.925,2.021-6.604,3.897c-0.509,1.424,0.251,3.907,1.297,5.736l0.493,0.877l-0.945-0.337
			c-3.128-1.099-5.451-1.556-7.366-0.54c-1.871,0.98-2.869,3.485-3.698,6.577l-0.437,1.617l-0.299-1.647
			c-0.666-3.704-1.435-5.199-3.423-6.362c-3.346-1.966-10.345,0.519-10.345,0.519s6.215-4.546,6.199-7.777
			c-0.017-2.075-1.535-4.503-4.065-6.324l-1.717-1.23l2.036,0.565c3.298,0.912,5.92,0.752,7.698-0.527
			c2.396-1.721,2.901-4.758,2.913-7.342l0.017-1.849l0.711,1.708c0.945,2.279,1.648,4.633,3.621,4.754
			c1.777,0.111,5.896-4.936,8.009-7.698c-7.867-2.469-18.714-2.481-30.044,0.555c-1.863,0.497-3.666,1.067-5.415,1.683l3.006,8.021
			c1.104,0.135,2.109,0.833,2.55,1.941c0.655,1.615-0.125,3.453-1.741,4.106c-1.616,0.652-3.455-0.127-4.109-1.744
			c-0.449-1.104-0.215-2.304,0.488-3.166l-3.18-7.318l-0.013-0.026l-0.246-0.568C40.723,41.9,31.448,51.049,31.238,59.396
			l0.865,0.024l16.709,0.319c0.533-0.978,1.552-1.653,2.739-1.663c1.75-0.01,3.168,1.394,3.181,3.138
			c0.008,1.742-1.391,3.166-3.132,3.178c-1.196,0.008-2.227-0.653-2.768-1.623l-16.285,0.531l-0.688,0.037
			c3.58,10.11,21.874,14.044,41.605,8.759c20.249-5.427,34.336-18.508,31.471-29.216C104.311,40.571,102.949,38.563,100.997,36.884"
			/>
	</g>
	<line fill="none" x1="0" y1="0" x2="0" y2="120"/>
	<line fill="none" x1="120" y1="0" x2="120" y2="120"/>
</g>
<g id="Layer_2">
</g>
</svg>
