<?xml version="1.0" encoding="utf-8"?>
<!-- Generator: Adobe Illustrator 16.0.0, SVG Export Plug-In . SVG Version: 6.00 Build 0)  -->
<!DOCTYPE svg PUBLIC "-//W3C//DTD SVG 1.1//EN" "http://www.w3.org/Graphics/SVG/1.1/DTD/svg11.dtd">
<svg version="1.1" xmlns="http://www.w3.org/2000/svg" xmlns:xlink="http://www.w3.org/1999/xlink" x="0px" y="0px" width="120px"
	 height="120px" viewBox="0 0 120 120" enable-background="new 0 0 120 120" xml:space="preserve">
<g id="Layer_1">
	<g>
		<g>
			<path d="M11.468,30.11c-0.027,12.793-0.562,25.571,0.07,38.36c0.547,11.051,1.555,23.526,7.554,33.146
				c0.83,1.333,3.365,1.339,3.655-0.478c2.544-15.933,3.799-32.035,6.125-47.998c-1.31-0.177-2.619-0.354-3.929-0.532
				c0.039,19.854,1.146,40.043,7.421,59.029c0.642,1.941,3.186,1.863,3.857,0c13.502-37.475,2.291-78.84,6.196-117.526
				c0.259-2.566-3.743-2.541-4,0c-3.867,38.312,7.311,79.369-6.054,116.462c1.286,0,2.571,0,3.857,0
				c-6.17-18.669-7.24-38.441-7.278-57.965c-0.004-2.191-3.596-2.814-3.929-0.532c-2.326,15.963-3.581,32.066-6.125,47.998
				c1.219-0.159,2.438-0.318,3.655-0.478c-6.127-9.828-6.658-22.74-7.139-33.979c-0.505-11.833,0.036-23.672,0.062-35.508
				C15.474,27.53,11.474,27.531,11.468,30.11L11.468,30.11z"/>
		</g>
	</g>
	<g>
		<g>
			<path d="M56.599,8.329c-4.063,19.482-7.739,39.081-9.312,58.944c-1.361,17.199-2.314,38.824,8.014,53.736
				c0.703,1.016,2.21,1.411,3.141,0.405c5.752-6.215,8.472-15.035,10.642-23.026c3.252-11.977,4.818-24.463,5.506-36.833
				c0.665-11.955,0.267-24.072-1.923-35.862c-1.574-8.479-4.418-18.181-11.225-23.997c-1.949-1.666-4.792,1.15-2.828,2.828
				c6.351,5.427,8.647,14.367,10.196,22.232c2.242,11.394,2.354,23.24,1.779,34.798c-0.565,11.382-2.131,22.748-4.857,33.815
				c-1.944,7.89-4.453,17.092-10.118,23.215c1.047,0.135,2.094,0.27,3.141,0.405c-10.202-14.732-8.699-36.146-7.358-53.093
				c1.507-19.033,5.167-37.84,9.061-56.505C60.98,6.875,57.125,5.804,56.599,8.329L56.599,8.329z"/>
		</g>
	</g>
	<g>
		<g>
			<path d="M77.526,13.611c2.896,29.926,1.604,60.07,4.499,89.996c0.246,2.543,4.248,2.567,4,0
				c-2.896-29.926-1.603-60.07-4.499-89.996C81.28,11.067,77.277,11.043,77.526,13.611L77.526,13.611z"/>
		</g>
	</g>
	<g>
		<g>
			<path d="M85.954,113.138c3.14-19.775,9.006-38.999,10.571-59.029c0.201-2.574-3.801-2.554-4,0
				c-1.537,19.667-7.346,38.547-10.429,57.965C81.696,114.597,85.551,115.68,85.954,113.138L85.954,113.138z"/>
		</g>
	</g>
	<g>
		<g>
			<path d="M92.525,54.109c0.001,18.244,0.168,36.473,3.071,54.529c0.409,2.542,4.263,1.459,3.857-1.063
				c-2.845-17.691-2.928-35.593-2.929-53.465C96.525,51.529,92.525,51.529,92.525,54.109L92.525,54.109z"/>
		</g>
	</g>
	<g>
		<g>
			<path d="M100.954,107.138c4.417-28.829,3.084-58.172,7.499-86.996c0.387-2.522-3.468-3.606-3.857-1.063
				c-4.416,28.829-3.083,58.172-7.499,86.996C96.71,108.597,100.564,109.681,100.954,107.138L100.954,107.138z"/>
		</g>
	</g>
	<g>
		<g>
			<path d="M112.024,31.61c0,9.5,0,18.999,0,28.499c0,2.58,4,2.58,4,0c0-9.5,0-18.999,0-28.499
				C116.024,29.03,112.024,29.03,112.024,31.61L112.024,31.61z"/>
		</g>
	</g>
	<g>
		<g>
			<path d="M112.524,83.107c2.579,0,2.579-4,0-4S109.945,83.107,112.524,83.107L112.524,83.107z"/>
		</g>
	</g>
</g>
<g id="Layer_2">
</g>
</svg>
