<?xml version="1.0" encoding="utf-8"?>
<!-- Generator: Adobe Illustrator 16.0.0, SVG Export Plug-In . SVG Version: 6.00 Build 0)  -->
<!DOCTYPE svg PUBLIC "-//W3C//DTD SVG 1.1//EN" "http://www.w3.org/Graphics/SVG/1.1/DTD/svg11.dtd">
<svg version="1.1" id="Layer_1" xmlns="http://www.w3.org/2000/svg" xmlns:xlink="http://www.w3.org/1999/xlink" x="0px" y="0px"
	 width="120px" height="120px" viewBox="0 0 120 120" enable-background="new 0 0 120 120" xml:space="preserve">
<g>
	<g>
		<path d="M8.5,58.268c0.689,17.891,1.398,35.792,3.48,53.586c0.666,5.693,9.674,5.758,9,0c-2.082-17.794-2.791-35.695-3.48-53.586
			C17.277,52.483,8.276,52.461,8.5,58.268L8.5,58.268z"/>
	</g>
</g>
<g>
	<g>
		<path d="M18.372,119.673c29.841-5.553,59.797-10.494,89.513-16.702c5.68-1.187,3.27-9.862-2.393-8.679
			c-29.716,6.208-59.672,11.149-89.513,16.702C10.278,112.055,12.7,120.728,18.372,119.673L18.372,119.673z"/>
	</g>
</g>
<g>
	<g>
		<path d="M96.187,46.437c-0.489,16.955,4.046,33.327,5.568,50.106c0.52,5.731,9.524,5.782,9,0
			c-1.521-16.77-6.057-33.172-5.568-50.106C105.354,40.63,96.354,40.646,96.187,46.437L96.187,46.437z"/>
	</g>
</g>
<g>
	<g>
		<path d="M14.393,60.68c29.14-3.578,58.738-4.81,87.316-11.991c5.626-1.414,3.238-10.094-2.393-8.679
			c-27.805,6.987-56.572,8.189-84.924,11.67C8.709,52.377,8.641,61.386,14.393,60.68L14.393,60.68z"/>
	</g>
</g>
<g>
	<g>
		<path d="M28.601,20.175c4.16,7.19,7.567,14.632,9.985,22.587c1.682,5.537,10.37,3.175,8.678-2.393
			c-2.635-8.672-6.355-16.896-10.892-24.736C33.468,10.612,25.688,15.142,28.601,20.175L28.601,20.175z"/>
	</g>
</g>
<g>
	<g>
		<path d="M63.11,41.249c1.645-8.112,3.961-16.026,7.414-23.562c2.399-5.236-5.356-9.813-7.771-4.542
			c-3.786,8.263-6.516,16.804-8.32,25.711C53.284,44.522,61.958,46.935,63.11,41.249L63.11,41.249z"/>
	</g>
</g>
<circle cx="79.75" cy="75.75" r="12.75"/>
<circle cx="37.75" cy="81.75" r="12.75"/>
</svg>
