<?xml version="1.0" encoding="utf-8"?>
<!-- Generator: Adobe Illustrator 16.0.0, SVG Export Plug-In . SVG Version: 6.00 Build 0)  -->
<!DOCTYPE svg PUBLIC "-//W3C//DTD SVG 1.1//EN" "http://www.w3.org/Graphics/SVG/1.1/DTD/svg11.dtd">
<svg version="1.1" xmlns="http://www.w3.org/2000/svg" xmlns:xlink="http://www.w3.org/1999/xlink" x="0px" y="0px" width="120px"
	 height="120px" viewBox="0 0 120 120" enable-background="new 0 0 120 120" xml:space="preserve">
<g id="Layer_1">
	<g>
		<g>
			<path d="M58.978,66.11c3.806-0.329,12.885-1.943,10.199-7.938c-2.058-4.592-8.247-5.924-12.673-4.655
				c-6.771,1.941-9.635,10.73-8.133,16.951c1.618,6.702,9.035,10.337,15.42,10.162c7.725-0.212,12.52-7.24,14.066-14.155
				c1.562-6.979-2.727-13.122-8.385-16.688c-15.305-9.649-35.102,0.84-35.892,18.831c-0.37,8.445,5.872,15.356,13.044,18.808
				c8.595,4.136,17.762,2.775,26.141-0.985c14.8-6.641,19.41-23.559,14.545-38.125c-4.907-14.695-19.109-24.835-34.731-22.65
				c-16.955,2.372-28.668,15.32-31.993,31.743c-3.163,15.623,1.878,33.101,14.653,43.068c15.936,12.434,39.367,16.521,57.206,5.985
				c16.766-9.902,22.307-30.181,18.276-48.345c-5.241-23.622-26.73-42.738-49.683-48.768C18.406-1.852-1.219,49.385,9.533,83.066
				c0.586,1.835,3.482,1.051,2.893-0.798C5.876,61.75,9.854,36.011,25.39,20.401c20.949-21.049,53.248-3.917,69.745,13.981
				c15.955,17.31,19.942,46.556,2.53,64.228c-16.761,17.011-45.94,12.499-62.654-2.203c-13.552-11.92-15.482-33.537-7.884-49.167
				c8.119-16.703,29.995-24.774,45.875-13.768c13.908,9.64,18.248,31.909,6.37,44.677c-7.328,7.877-19.398,10.693-29.47,7.388
				c-11.998-3.938-16.275-16.118-10.262-26.882c5.715-10.232,18.725-11.75,28.318-6.277c4.021,2.294,6.913,6.212,7.188,10.889
				c0.305,5.191-3.418,11.793-8.272,13.723C55.521,81.5,46.4,67.8,53.995,58.657c2.694-3.244,7.297-3.267,10.672-1.213
				c5.707,3.473-3.078,5.44-5.689,5.666C57.065,63.275,57.049,66.276,58.978,66.11L58.978,66.11z"/>
		</g>
	</g>
</g>
<g id="Layer_2">
</g>
</svg>
