<?xml version="1.0" encoding="utf-8"?>
<!-- Generator: Adobe Illustrator 16.0.0, SVG Export Plug-In . SVG Version: 6.00 Build 0)  -->
<!DOCTYPE svg PUBLIC "-//W3C//DTD SVG 1.1//EN" "http://www.w3.org/Graphics/SVG/1.1/DTD/svg11.dtd">
<svg version="1.1" id="Layer_1" xmlns="http://www.w3.org/2000/svg" xmlns:xlink="http://www.w3.org/1999/xlink" x="0px" y="0px"
	 width="12px" height="12px" viewBox="0 0 12 12" enable-background="new 0 0 12 12" xml:space="preserve">
<g>
	<g>
		<path d="M4.569,2.465c-0.251,2.897-2.399,5.17-3.238,7.89c-0.077,0.252,0.09,0.555,0.35,0.615
			c1.566,0.364,3.136,0.692,4.735,0.864c1.12,0.12,3.075,0.304,3.695-0.924c0.576-1.139-1.217-2.627-1.868-3.305
			C6.947,6.258,4.457,4.59,3.924,2.797C3.74,2.181,2.775,2.443,2.959,3.063C3.381,4.479,4.534,5.315,5.533,6.33
			c1.052,1.069,2.163,2.074,3.13,3.226c1.44,1.716-1.532,1.355-2.587,1.242c-1.393-0.149-2.768-0.476-4.13-0.792
			c0.116,0.205,0.233,0.41,0.35,0.615c0.874-2.836,3.01-5.116,3.273-8.156C5.625,1.823,4.625,1.828,4.569,2.465L4.569,2.465z"/>
	</g>
</g>
</svg>
