<?xml version="1.0" encoding="utf-8"?>
<!-- Generator: Adobe Illustrator 16.0.0, SVG Export Plug-In . SVG Version: 6.00 Build 0)  -->
<!DOCTYPE svg PUBLIC "-//W3C//DTD SVG 1.1//EN" "http://www.w3.org/Graphics/SVG/1.1/DTD/svg11.dtd">
<svg version="1.1" xmlns="http://www.w3.org/2000/svg" xmlns:xlink="http://www.w3.org/1999/xlink" x="0px" y="0px" width="120px"
	 height="120px" viewBox="0 0 120 120" enable-background="new 0 0 120 120" xml:space="preserve">
<g id="Layer_1">
	<path id="path5402_1_" fill="#E63228" d="M31.946,63.719c-0.168,0.567,1.38,3.034,3.221,4.685c3.428,3.075,8.918,5.08,16.084,5.867
		c9.091,0.999,22.101-1.304,32.167-5.678c6.52-2.832,14.578-8.465,17.158-11.997c0.62-0.85,1.364-1.806,1.66-2.13
		c2.117-2.32,3.377-7.966,2.544-11.413c-0.498-2.061-4.78-7.429-8.343-8.742c-4.812-1.875-9.561-2.824-16.136-2.847
		c-5.114-0.018-10.645,0.242-13.879,1.139c-3.176,0.88-9.538,2.66-12.599,3.882c-0.869,0.347-3.353,1.664-3.353,1.664
		c-10.293,5.128-16.853,11.571-19.098,18.724c-0.344,1.093-0.502,2.05-0.426,2.189C30.75,60.75,31.531,62.344,31.946,63.719z
		 M108.411,57.502c-0.17,0.02-0.34,0.487-0.485,1.459c-0.363,2.462-3.228,16.4-3.527,17.163c-0.151,0.385-0.536,2.171-0.853,3.97
		c-0.317,1.798-0.816,4.32-1.104,5.604c-0.287,1.285-0.959,4.437-1.484,7.006c-1.158,5.656-1.877,8.172-2.353,8.172
		c-0.196,0-5.51-5.029-11.806-11.179L75.362,78.519l-0.78,1.751c-0.422,0.965-0.925,2.68-1.117,3.809
		c-0.191,1.129-0.53,2.378-0.749,2.773c-0.22,0.395-1.046,3.132-1.853,6.085c-0.807,2.955-1.762,6.422-2.117,7.706
		c-0.355,1.285-1.009,3.754-1.456,5.488c-0.962,3.733-1.627,3.968-3.91,1.401c-2.118-2.38-8.138-9.093-8.719-9.72
		c-0.258-0.278-1.635-1.82-3.058-3.429c-1.423-1.609-3.011-3.389-3.528-3.955c-0.518-0.567-2.317-2.581-3.999-4.466
		s-3.298-3.656-3.572-3.941c-0.276-0.285-1.492-1.634-2.705-2.992c-2.405-2.691-2.731-2.388-1.221,1.124
		c0.538,1.253,1.305,3.013,1.69,3.911c0.387,0.899,0.985,2.266,1.338,3.036c0.604,1.319,1.38,3.088,3.265,7.472
		c0.44,1.027,1.087,2.498,1.441,3.27c0.561,1.228,1.802,4.048,3.071,7.005c2.34,5.445,3.115,6.777,5.16,8.728
		c2.744,2.617,7.046,4.728,11.527,5.677c6.833,1.448,16.566,0.756,24.257-1.737c7.858-2.545,12.765-5.428,17.613-10.333
		c3.913-3.958,4.089-4.176,5.396-6.815c1.569-3.168,1.843-5.993,1.162-12.041c-0.336-2.984-0.843-7.531-1.132-10.099
		s-0.829-6.667-1.191-9.107c-0.363-2.44-0.795-6.065-0.97-8.056C108.998,58.702,108.697,57.47,108.411,57.502z"/>
	<path fill="#E63228" d="M116.802,11.76c-0.841-0.407-2.386,0.02-8.597,1.941c-1.902,0.59-4.561,1.383-5.896,1.767
		c-1.338,0.384-4.255,1.28-6.492,1.994c-2.238,0.714-5.678,1.774-7.643,2.355c-5.976,1.771-9.418,2.817-12.598,3.817
		c-2.044,0.643-3.338,0.76-3.955,0.369c-2.123-1.34-5.134,1.369-4.139,3.721c0.273,0.646,0.764,1.328,1.084,1.531
		c0.961,0.605,3.449-0.113,4.146-1.197c0.471-0.731,2.31-1.425,6.634-2.491c3.286-0.812,9.884-2.454,14.665-3.651
		c4.784-1.197,11.664-2.902,15.283-3.799c8.548-2.115,8.656-2.156,8.768-3.784c0.05-0.708-0.295-1.688-0.752-2.167
		C117.144,11.993,116.996,11.854,116.802,11.76z"/>
	<g id="layer1_1_" inkscape:groupmode="layer" inkscape:label="Layer 1">
		<path id="path5402_2_" fill="none" d="M42.386,0 M117.909,12.799c-0.337-0.625-1.15-1.27-1.794-1.43
			c-0.233-0.058-0.432-0.097-0.646-0.072 M2.293,59.881c-0.737,0.732-0.719,2.823,0.029,3.605"/>
	</g>
</g>
<g id="Layer_2">
</g>
</svg>
