<?xml version="1.0" encoding="utf-8"?>
<!-- Generator: Adobe Illustrator 16.0.0, SVG Export Plug-In . SVG Version: 6.00 Build 0)  -->
<!DOCTYPE svg PUBLIC "-//W3C//DTD SVG 1.1//EN" "http://www.w3.org/Graphics/SVG/1.1/DTD/svg11.dtd">
<svg version="1.1" xmlns="http://www.w3.org/2000/svg" xmlns:xlink="http://www.w3.org/1999/xlink" x="0px" y="0px" width="120px"
	 height="120px" viewBox="0 0 120 120" enable-background="new 0 0 120 120" xml:space="preserve">
<g id="Layer_1">
	<path d="M100,30H20C8.954,30,0,38.954,0,50v41h0.051C0.575,101.578,9.292,110,20,110h80c10.708,0,19.425-8.422,19.949-19H120V50
		C120,38.954,111.046,30,100,30z M40,100c-16.568,0-30-13.432-30-30s13.432-30,30-30s30,13.432,30,30S56.568,100,40,100z"/>
	<circle cx="10" cy="40.001" r="10"/>
	<rect y="40" width="5" height="20"/>
	<path d="M80.997-0.234L7.087,30.38l3.826,9.239l73.91-30.615c2.552-1.057,3.763-3.981,2.706-6.533
		C86.473-0.08,83.548-1.292,80.997-0.234z"/>
	<path fill="#FFFFFF" d="M107.5,52.5h-25c-1.381,0-2.5,1.119-2.5,2.5s1.119,2.5,2.5,2.5h25c1.381,0,2.5-1.119,2.5-2.5
		S108.881,52.5,107.5,52.5z"/>
	<path fill="#FFFFFF" d="M107.5,62.5h-25c-1.381,0-2.5,1.119-2.5,2.5s1.119,2.5,2.5,2.5h25c1.381,0,2.5-1.119,2.5-2.5
		S108.881,62.5,107.5,62.5z"/>
	<path fill="#FFFFFF" d="M107.5,72.5h-25c-1.381,0-2.5,1.119-2.5,2.5s1.119,2.5,2.5,2.5h25c1.381,0,2.5-1.119,2.5-2.5
		S108.881,72.5,107.5,72.5z"/>
	<path fill="#FFFFFF" d="M107.5,82.5h-25c-1.381,0-2.5,1.119-2.5,2.5s1.119,2.5,2.5,2.5h25c1.381,0,2.5-1.119,2.5-2.5
		S108.881,82.5,107.5,82.5z"/>
	<circle cx="40" cy="70" r="20"/>
</g>
<g id="Layer_2">
</g>
</svg>
