<?xml version="1.0" encoding="utf-8"?>
<!-- Generator: Adobe Illustrator 16.0.0, SVG Export Plug-In . SVG Version: 6.00 Build 0)  -->
<!DOCTYPE svg PUBLIC "-//W3C//DTD SVG 1.1//EN" "http://www.w3.org/Graphics/SVG/1.1/DTD/svg11.dtd">
<svg version="1.1" id="Layer_1" xmlns="http://www.w3.org/2000/svg" xmlns:xlink="http://www.w3.org/1999/xlink" x="0px" y="0px"
	 width="12px" height="12px" viewBox="0 0 12 12" enable-background="new 0 0 12 12" xml:space="preserve">
<g>
	<g>
		<path d="M0.104,1c0.247,3.198-0.069,6.279-0.128,9.461c-0.021,1.105,1.66,1.428,2.433,1.646c2.52,0.712,8.507,2.299,9.353-1.378
			c0.395-1.715-0.229-3.797-0.211-5.564c0.013-1.331,0.456-4.234-0.593-5.333C9.953-1.221,8.153-0.901,6.871-0.735
			C4.574-0.438,2.334,0.32,0.023,0.5c-0.639,0.05-0.644,1.05,0,1C2.837,1.281,5.534,0.297,8.36,0.118
			c2.296-0.146,2.164,1.619,2.194,3.426c0.022,1.321-0.11,2.666,0.062,3.979c0.088,0.673,0.175,1.332,0.216,2.01
			c0.111,1.864-0.863,2.319-2.397,2.409c-1.67,0.099-3.383-0.249-5.004-0.609c-0.438-0.098-0.87-0.216-1.298-0.35
			c-1.279-0.4-1.115-0.99-1.028-2.075c0.211-2.643,0.204-5.265,0-7.907C1.055,0.361,0.055,0.356,0.104,1L0.104,1z"/>
	</g>
</g>
</svg>
