<?xml version="1.0" encoding="utf-8"?>
<!-- Generator: Adobe Illustrator 16.0.0, SVG Export Plug-In . SVG Version: 6.00 Build 0)  -->
<!DOCTYPE svg PUBLIC "-//W3C//DTD SVG 1.1//EN" "http://www.w3.org/Graphics/SVG/1.1/DTD/svg11.dtd">
<svg version="1.1" xmlns="http://www.w3.org/2000/svg" xmlns:xlink="http://www.w3.org/1999/xlink" x="0px" y="0px" width="120px"
	 height="120px" viewBox="0 0 120 120" enable-background="new 0 0 120 120" xml:space="preserve">
<g id="Layer_1">
	<path fill="#E63228" d="M65.103,118.43c1.397-1.618,1.366-5.281,0.788-20.137c-0.181-4.549-0.364-10.89-0.422-14.068
		c-0.058-3.182-0.317-10.156-0.574-15.521c-0.254-5.365-0.566-13.588-0.689-18.271c-0.387-14.248-0.666-22.468-0.998-30.083
		c-0.213-4.895,0.292-7.822,1.519-8.957c4.213-3.897,0.006-12.147-5.775-11.338c-1.59,0.223-3.385,0.902-4.023,1.491
		c-1.904,1.766-1.784,7.688,0.198,9.865c1.338,1.473,1.784,5.944,1.586,16.126c-0.146,7.739-0.411,23.283-0.59,34.551
		c-0.179,11.275-0.473,27.48-0.63,36.006c-0.372,20.13-0.346,20.394,3.185,21.6c1.534,0.53,3.901,0.347,5.229-0.382
		C64.391,119.047,64.783,118.803,65.103,118.43z"/>
</g>
<g id="Layer_2">
</g>
</svg>
