<?xml version="1.0" encoding="utf-8"?>
<!-- Generator: Adobe Illustrator 16.0.0, SVG Export Plug-In . SVG Version: 6.00 Build 0)  -->
<!DOCTYPE svg PUBLIC "-//W3C//DTD SVG 1.1//EN" "http://www.w3.org/Graphics/SVG/1.1/DTD/svg11.dtd">
<svg version="1.1" id="Layer_1" xmlns="http://www.w3.org/2000/svg" xmlns:xlink="http://www.w3.org/1999/xlink" x="0px" y="0px"
	 width="12px" height="12px" viewBox="0 0 12 12" enable-background="new 0 0 12 12" xml:space="preserve">
<g>
	<g>
		<path d="M2.523,8.559c-0.058-0.46-0.362-4.023,0.875-2.936c0.83,0.729,1.294,1.823,2.326,2.32
			c0.302,0.146,0.625,0.023,0.734-0.299c0.21-0.613,0.321-1.208,0.375-1.851c0.095-1.112,1.199-0.973,2.087-0.88
			c1.261,0.133,1.96-0.254,1.974-1.588c0.007-0.645-0.993-0.645-1,0C9.884,4.395,7.144,3.623,6.38,4.292
			C5.589,4.984,5.81,6.457,5.495,7.379c0.245-0.1,0.489-0.199,0.734-0.299C5.174,6.571,4.051,3.77,2.585,4.406
			C1.05,5.072,1.355,7.221,1.523,8.559C1.603,9.189,2.604,9.197,2.523,8.559L2.523,8.559z"/>
	</g>
</g>
</svg>
