<?xml version="1.0" encoding="utf-8"?>
<!-- Generator: Adobe Illustrator 16.0.0, SVG Export Plug-In . SVG Version: 6.00 Build 0)  -->
<!DOCTYPE svg PUBLIC "-//W3C//DTD SVG 1.1//EN" "http://www.w3.org/Graphics/SVG/1.1/DTD/svg11.dtd">
<svg version="1.1" id="Layer_1" xmlns="http://www.w3.org/2000/svg" xmlns:xlink="http://www.w3.org/1999/xlink" x="0px" y="0px"
	 width="12px" height="12px" viewBox="0 0 12 12" enable-background="new 0 0 12 12" xml:space="preserve">
<g>
	<g>
		<path d="M0.093,0.965c3.634-0.04,7.192,0.755,10.813,0.931c0.645,0.031,0.642-0.969,0-1C7.286,0.72,3.728-0.075,0.093-0.035
			C-0.551-0.028-0.552,0.972,0.093,0.965L0.093,0.965z"/>
	</g>
</g>
<g>
	<g>
		<path d="M0.674,11.313c3.488,0,6.977,0,10.465,0c0.645,0,0.645-1,0-1c-3.488,0-6.977,0-10.465,0
			C0.029,10.313,0.029,11.313,0.674,11.313L0.674,11.313z"/>
	</g>
</g>
</svg>
