<?xml version="1.0" encoding="utf-8"?>
<!-- Generator: Adobe Illustrator 16.0.0, SVG Export Plug-In . SVG Version: 6.00 Build 0)  -->
<!DOCTYPE svg PUBLIC "-//W3C//DTD SVG 1.1//EN" "http://www.w3.org/Graphics/SVG/1.1/DTD/svg11.dtd">
<svg version="1.1" xmlns="http://www.w3.org/2000/svg" xmlns:xlink="http://www.w3.org/1999/xlink" x="0px" y="0px" width="120px"
	 height="120px" viewBox="0 0 120 120" enable-background="new 0 0 120 120" xml:space="preserve">
<g id="Layer_1">
	<g>
		<path fill="#EF4135" d="M108.837,57.582l-0.009,0.002c0-0.004-0.008-0.008-0.008-0.014c0-0.004,0-0.008,0-0.012
			c-0.028-0.103-0.089-0.186-0.162-0.256c-0.02-0.022-0.04-0.042-0.068-0.061c-0.085-0.059-0.178-0.097-0.278-0.107
			c-0.017,0-0.021-0.012-0.037-0.014c-0.023,0-0.04,0.021-0.064,0.021c-0.032,0.004-0.064-0.002-0.101,0.008
			c-0.057,0.012-0.102,0.046-0.149,0.075c-0.024,0.014-0.049,0.022-0.065,0.041c-0.08,0.067-0.133,0.151-0.169,0.245
			c-0.009,0.018-0.024,0.026-0.032,0.044l0,0v0.008c-0.005,0.01-0.005,0.021-0.009,0.03l-8.757,42.341
			c-0.008,0.234-0.161,0.446-0.396,0.509c-0.238,0.065-0.477-0.044-0.599-0.242L75.636,78.358c-0.141-0.125-0.339-0.182-0.533-0.127
			l0,0c-0.198,0.051-0.339,0.198-0.399,0.378l-8.39,30.062c-0.008,0.23-0.161,0.447-0.399,0.509
			c-0.234,0.061-0.478-0.046-0.595-0.245L36.564,76.646c-0.008-0.008-0.013-0.014-0.021-0.022l-0.008-0.008l0,0
			c-0.013-0.012-0.032-0.012-0.049-0.024c-0.076-0.062-0.165-0.109-0.263-0.127c-0.028-0.006-0.053-0.002-0.081-0.002
			c-0.056-0.002-0.108-0.004-0.165,0.012c-0.036,0.008-0.061,0.031-0.093,0.045c-0.021,0.008-0.045,0-0.065,0.014
			c-0.012,0.006-0.012,0.022-0.028,0.031c-0.084,0.062-0.146,0.141-0.186,0.234c-0.016,0.03-0.024,0.052-0.032,0.084
			c-0.024,0.097-0.036,0.2-0.008,0.303c0,0.004,0.004,0.006,0.004,0.012c0,0.002,0,0.008,0,0.012l-0.004,0.004
			c0,0,13.161,30.473,13.618,31.554c3.58,8.425,17.545,14.446,36.614,9.369l0,0c19.991-5.391,28.408-18.505,27.212-26.325
			C112.809,90.499,108.837,57.582,108.837,57.582"/>
		<path fill="#EF4135" d="M100.997,36.884c-2.622-2.134-4.56-3.009-7.88-4.122c-7.867-2.469-18.714-2.481-30.044,0.555
			c-1.863,0.497-3.666,1.067-5.415,1.683l-3.245,1.247C40.723,41.9,31.448,51.049,31.238,59.396c0,0,0.016,1.086,0.199,2.198
			c0.123,0.745,0.423,1.744,0.423,1.744c3.58,10.11,21.874,14.044,41.605,8.759c20.249-5.427,34.336-18.508,31.471-29.216
			C104.311,40.571,102.949,38.563,100.997,36.884"/>
	</g>
	<line fill="none" x1="0" y1="0" x2="0" y2="120"/>
	<line fill="none" x1="120" y1="0" x2="120" y2="120"/>
</g>
<g id="Layer_2">
</g>
</svg>
